<svg xmlns="http://www.w3.org/2000/svg" fill="none" viewBox="0 0 24 25" class="" style="max-width:24px;min-width:24px;height:auto">
    <path fill="white" fill-rule="evenodd" d="M15.3 2.8a5.7 5.7 0 0 1 5.29.87 6.09 6.09 0 0 1 1.79 2.18 6.24 6.24 0 0 1-1.1 7l-8.79 9.43a.67.67 0 0 1-.98 0l-8.79-9.42a6.24 6.24 0 0 1-1.1-7v-.01a6.09 6.09 0 0 1 1.8-2.17 5.8 5.8 0 0 1 5.28-.89c.88.3 1.68.8 2.34 1.48l.96.9.96-.9a5.88 5.88 0 0 1 2.34-1.48Zm5.85 3.7a4.67 4.67 0 0 0-1.37-1.67 4.45 4.45 0 0 0-4.06-.68 4.51 4.51 0 0 0-1.82 1.16l-1.44 1.36a.67.67 0 0 1-.92 0L10.1 5.31A4.51 4.51 0 0 0 6.17 4c-.7.12-1.37.4-1.95.84a4.67 4.67 0 0 0-1.79 4.48 4.66 4.66 0 0 0 1.27 2.55l8.3 8.9 8.3-8.9v-.02a4.76 4.76 0 0 0 .84-5.35Z" clip-rule="evenodd">
    </path>
</svg>