<svg xmlns="http://www.w3.org/2000/svg" fill="none" viewBox="0 0 48 64" width="4.8em">
    <mask id="b420f7127dd971eda66fe536093197e2__a" fill="currentColor">
        <path fill-rule="evenodd" d="M48 0H0v64l24-17.87L48 64V0Z" clip-rule="evenodd">
        </path>
    </mask>
    <path fill="rgba(255,255,255,0.12)" fill-rule="evenodd" d="M48 0H0v64l24-17.87L48 64V0Z" clip-rule="evenodd" class="P14KYS"></path>
    <path fill="rgba(255,255,255,0.12)" d="M0 0v-1h-1v1h1Zm48 0h1v-1h-1v1ZM0 64h-1v2l1.6-1.2L0 64Zm24-17.87.6-.8-.6-.44-.6.44.6.8ZM48 64l-.6.8L49 66v-2h-1ZM0 1h48v-2H0v2Zm1 63V0h-2v64h2Zm-.4.8 24-17.86-1.2-1.6-24 17.86 1.2 1.6Zm22.8-17.86 24 17.86 1.2-1.6-24-17.87-1.2 1.6ZM47 0v64h2V0h-2Z" mask="url(#b420f7127dd971eda66fe536093197e2__a)" class="xNZEk7"></path>
    <path fill="rgba(255,255,255,0.12)" d="M35.3 18.08a6.57 6.57 0 0 0-10.44-1.71l-.86.78-.83-.76a6.53 6.53 0 0 0-5.69-1.8 6.45 6.45 0 0 0-3.57 10.95l9.37 9.66a1 1 0 0 0 1.44 0l9.36-9.64a6.4 6.4 0 0 0 1.22-7.48Z" class="dZR92M"></path>
    <path fill="white" fill-rule="evenodd" d="M27.3 15.3a5.7 5.7 0 0 1 5.29.87 6.09 6.09 0 0 1 1.79 2.18 6.24 6.24 0 0 1-1.1 7l-8.79 9.43a.67.67 0 0 1-.98 0l-8.79-9.42a6.24 6.24 0 0 1-1.1-7v-.01a6.09 6.09 0 0 1 1.8-2.17 5.8 5.8 0 0 1 5.28-.89c.88.3 1.68.8 2.34 1.48l.96.9.96-.9a5.88 5.88 0 0 1 2.34-1.48Zm5.85 3.7a4.67 4.67 0 0 0-1.37-1.67 4.45 4.45 0 0 0-4.06-.68 4.51 4.51 0 0 0-1.82 1.16l-1.44 1.36a.67.67 0 0 1-.92 0l-1.44-1.36-.02-.02a4.51 4.51 0 0 0-3.91-1.3c-.7.12-1.37.4-1.95.84a4.67 4.67 0 0 0-1.79 4.48 4.66 4.66 0 0 0 1.27 2.55l8.3 8.9 8.3-8.9v-.02a4.76 4.76 0 0 0 .84-5.35Z" clip-rule="evenodd"></path>
</svg>