<svg xmlns="http://www.w3.org/2000/svg" fill="none" viewBox="0 0 26 24" class="guWAyx" style="max-width:24px;min-width:24px;height:auto">
    <path fill="white" fill-rule="evenodd" d="M10.95 1.25a9.46 9.46 0 0 1 6.49 2.52 8.5 8.5 0 0 1 .59 11.96l5.96 5.74c.3.3.3.77 0 1.06-.3.3-.8.3-1.1 0l-5.96-5.74a9.48 9.48 0 0 1-9.32 1.43 9 9 0 0 1-5-4.72 8.52 8.52 0 0 1 1.9-9.61 9.17 9.17 0 0 1 6.44-2.64Zm5.47 13.95a.79.79 0 0 0-.04.04 7.86 7.86 0 0 1-8.18 1.59 7.46 7.46 0 0 1-4.15-3.92A7.07 7.07 0 0 1 5.6 4.94a7.6 7.6 0 0 1 5.35-2.2 7.85 7.85 0 0 1 5.39 2.1 7.05 7.05 0 0 1 .07 10.36Z" clip-rule="evenodd">
    </path>
</svg>