<svg xmlns="http://www.w3.org/2000/svg" xmlns:xlink="http://www.w3.org/1999/xlink" width="132" height="69" viewBox="0 0 132 69"><defs><path id="a" d="M0 .03h12.11V18.8H0z"/><path id="c" d="M.05.03h12.1v12.1H.05z"/></defs><g fill="none" fill-rule="evenodd"><path fill="#23095C" fill-rule="nonzero" d="M54.68 68.17c1.42 0 2.7-.6 3.63-1.57l-1.23-1.15a3.2 3.2 0 01-2.4 1.12 3.37 3.37 0 01-3.27-3.39c0-1.83 1.5-3.37 3.27-3.37.93 0 1.8.43 2.38 1.12l1.25-1.16a5.06 5.06 0 00-8.68 3.41c0 2.7 2.31 4.99 5.05 4.99zm8.07-7.58c-.91 0-1.86.26-2.89.76l.6 1.19c.6-.3 1.27-.55 1.95-.55 1.32 0 1.78.82 1.78 1.66v.2a5.8 5.8 0 00-2.03-.4c-1.62 0-2.95.98-2.95 2.4 0 1.4 1.16 2.32 2.7 2.32.84 0 1.75-.37 2.28-1.04V68h1.67v-4.35c0-1.84-1.2-3.06-3.11-3.06zm-.46 6.33c-.82 0-1.42-.43-1.42-1.12 0-.68.69-1.16 1.54-1.16.65 0 1.25.1 1.78.28v.81c-.2.77-1.08 1.2-1.9 1.2zm8.09 1.25c1.7 0 2.84-.9 2.84-2.28 0-1.52-1.32-1.94-2.53-2.27l-.36-.1c-.83-.26-1.13-.42-1.13-.83 0-.4.46-.64 1.07-.64.63 0 1.37.22 2.05.66l.72-1.25a5.15 5.15 0 00-2.77-.87c-1.61 0-2.73.93-2.73 2.29 0 1.23.92 1.7 2.37 2.08l.52.15c.66.19 1.14.39 1.14.87 0 .45-.48.75-1.16.75-.91 0-1.73-.34-2.43-.84l-.77 1.19c.87.7 2.06 1.09 3.17 1.09zm8.27-7.58c1.58 0 2.69 1.17 2.69 2.8V68h-1.65v-4.27c0-.98-.63-1.68-1.53-1.68-.96 0-1.76.7-1.76 1.57V68h-1.71v-9.79h1.7v3.55a2.63 2.63 0 012.26-1.17z"/><path fill="#FAE924" d="M11 48.95h39.95V9H11z"/><path fill="#020203" d="M25.29 40.63c.13 2.03 1.7 3 3.64 2.54.43-.1.64-.27.96-.38l-.34-.85c-.5.15-1.13.57-2.01.26-.59-.2-1-.72-1.01-1.48h3.52c0-1.61-.48-3.19-2.33-3.2-1.81-.02-2.53 1.5-2.43 3.11zm1.22-.79c.06-.74.4-1.36 1.17-1.37.73 0 1.1.64 1.11 1.37h-2.28zm-5.26 2.9l-.34-.8c-.32.1-.52.25-.94.32-1.08.19-2.06-.32-2.08-1.55h3.52c0-1.23-.22-2.64-1.6-3.07-.63-.2-1.4-.13-1.92.18-1.91 1.14-1.81 5.49 1.53 5.45.64 0 1.45-.18 1.83-.52zm-3.38-2.91c.09-.74.37-1.34 1.15-1.36.76-.01 1.12.62 1.15 1.37l-2.3-.01zm12.8.72c.08 3.23 3.6 3.05 4.54 2.2a4.1 4.1 0 00-.36-.83c-.64.27-1.28.57-2.06.18-1.22-.6-1.13-2.86.1-3.43.48-.22 1.14-.2 1.64.01l.45.24v-1.05c-.73-.29-1.25-.48-2.16-.27-1.38.32-2.17 1.57-2.14 2.95zm-8.12-2.9l.02-1.2c-.02-.43.37-1.1.9-1.34.5-.23 1.42-.24 1.89.06l-.23.96c-1.38-.31-1.37-.05-1.37 1.53h1.5l-.39.96h-1.11v4.52c-.23.03-1.01.04-1.2-.01v-4.5l-.61-.01-.38-.96h.98zM36.94 13.5c3.87 1.36 6.11 5.23 5.24 9.79-1.01 5.31-5.9 9.69-11.2 10.24-.43-.01-.43-.25-.45-.6l.07-2.21c0-.11-.03-.15-.08-.16a8.3 8.3 0 01-1.61-.34 9.96 9.96 0 01-1.73-.93c-.27-.12-.23-.74-.23-.97.05-.44.37-1.45.89-1.5.62-.04.91.3 1.52.6 1.08.5 2.58.8 3.7.28.53-.33.66-.77.41-1.33-.43-.91-2.52-1.66-3.47-2.12-2.26-.96-3.53-2.92-3.13-5.26.3-1.72 1.91-3.02 3.6-3.26v-.82a12 12 0 00-5.09 3.2 10.96 10.96 0 00-3.37 7.8c.16 3.98 2.23 5.75 4.4 7.07-3.72-1.44-5.84-5.24-5-9.7a13.16 13.16 0 0111.64-10.27c.22.13.23.15.35.44l-.14 2.06c1.08.22 2.1.52 2.93 1.23.02 1.57-1.16 2.23-1.6 2 .01-.08-1.8-.58-2.17-.66-.45-.08-.9-.05-1.35.15-.53.25-.78.63-.53 1.21.22.44.58.72.97.97l3.41 1.84a5.17 5.17 0 012.13 2.13c.33.86.4 1.73.21 2.62-.22.72-.5 1.34-.91 1.74-.35.4-.73.7-1.14.92a5.8 5.8 0 01-1.75.67l-.06 1.1c.05.02.1 0 .15 0a12.81 12.81 0 003.52-1.94c1.43-1.26 2.76-2.58 3.46-4.3.48-.94.85-2 1.02-3.24.4-3.47-.87-6.73-4.61-8.45zm-3-1.45c6.26 0 10.37 5.03 9.19 11.24-1.19 6.2-7.22 11.24-13.47 11.24-6.26 0-10.37-5.03-9.19-11.24 1.2-6.21 7.22-11.24 13.48-11.24zm2.5 26.6v3.27c.03.32.07.5.13.62.45.97 1.98.88 2.87.3l-.4-.82c-.29.1-.64.35-1.05.22-.37-.1-.34-.54-.34-.97v-2.65l2.47.01 1.99 4.53c.04.2-.4.98-.5 1.11-.69.97-1.33.56-1.88.44l-.27.98c1.05.4 2.14.25 2.75-.42.55-.6.86-1.42 1.2-2.35l1.9-5.26h-1.26l-1.34 4.04c-.13-.14-1.17-2.74-1.36-3.18-.26-.6-.63-.86-1.43-.86h-2.27v-1.63c-.27.06-1.02.29-1.22.39v1.22l-.98.01v.97l.98.03z"/><path fill="#57A0D4" d="M66.3 42.6l-1.2-6.24s-.56-1.59.94-2.02c0 0 1.31-.28 1.48 1.1l.44 2.04.04-2.95s-.06-1.26 1.32-1.4c0 0 1-.1 1.25 1.15l-.02 1.94-4.25 6.37z"/><path fill="#F16722" d="M115.34 36c-.07 0-.15.08-.2-.13.08-.04.16-.08.2.14"/><path fill="#003F7F" d="M74.84 35.8l.04-.07.14.07-.07.03c-.05 0-.08-.01-.11-.04"/><path fill="#F16722" d="M115.08 35.88l-.1.1-.06-.13c.06-.04.11-.03.16.03M114.72 35.87c-.08.06-.14.05-.18-.07.08-.05.13-.01.18.07"/><path fill="#003F7F" d="M74.94 35.67c0-.05.03-.09.08-.1.04.08 0 .1-.08.1"/><path fill="#E92024" d="M117.05 45.4c-.72.59-1.57.9-2.52.85a3.76 3.76 0 01-3.68-3.97c0-.82.27-1.56.76-2.22.04-.05.07-.1.07-.17.26-.2.46-.45.73-.63a3.83 3.83 0 015.08.55l.12.09c0 .18.16.27.25.4a3.74 3.74 0 01-.8 5.1zm-5.97.79c0 .06-.02.14-.09.14h-1.33c-.06 0-.07-.07-.09-.11l-.29-.03c-.1.12-.13.04-.16-.05-.89-.28-1.6-.8-2.14-1.56a3.14 3.14 0 01-.63-1.8l-.02-2.89h-1.21c.2.38.48.7.64 1.1a3.56 3.56 0 01-.4 3.55 3.71 3.71 0 01-3.27 1.7 3.7 3.7 0 01-3.7-3.44 3.94 3.94 0 01.75-2.77c.02-.02.02-.04.03-.07.3-.23.51-.54.83-.74a4.11 4.11 0 011.8-.62c1.24-.12 2.24.3 3.11 1.15.06.06.11.14.21.14h1.21c.05-.8.01-1.62.02-2.43V37h1.76c.1.52 0 1.06.07 1.62h1.72c.1.44.01.86.06 1.28-.05.15.02.32-.1.52h-1.63c-.1.13-.08.24-.08.33v1.83a1.7 1.7 0 001.07 1.65c.14.06.26.19.44.17.09-.12.12-.05.16.04h1.26v1.76zm-12.33.07h-1.4c-.1.13-.18.1-.23-.05a3.49 3.49 0 01-2.95-3.45c.02-.79 0-1.57 0-2.36 0-.2 0-.4-.04-.59.11-.1.06-.24.06-.35v-2.41h1.7c.07.13.03.26.03.38v2.17c.01.12-.04.25.05.36l.01 2.72c0 .88.43 1.45 1.3 1.72.08-.14.12-.06.15.04.43.07.87-.02 1.32.05v1.77zm-4.95 0h-1.63c-.15-.17-.01-.37-.18-.51-.23.04-.43.18-.66.27-1.9.69-4.11-.26-4.85-2.2a3.27 3.27 0 01-.24-1.87c.04-.18-.01-.37.05-.55.15-.5.42-.92.72-1.33a3.72 3.72 0 012.68-1.48c.2-.25.46-.09.69-.11.05 0 .06.06.07.11l.52.08c.1-.1.13-.03.16.06a3.74 3.74 0 012.71 3.2c.04.25.05.5.05.75v3.11c0 .14.03.28-.09.46zm-8.53-.9c-.51.58-1.2.88-1.96.89-1.54.02-3.07 0-4.61 0-.06 0-.13 0-.18-.03-.1-.25-.12-8.76-.03-9.2.1-.09.21-.06.32-.06h3.79a2.5 2.5 0 012.33 1.34c.11.2.15.4.2.6.16.05.2.13.06.24v.52c.13.09.06.13-.04.16-.04.38-.22.71-.42 1.04.1.13.2.24.34.33.35.24.55.61.71.99a2.79 2.79 0 01-.51 3.19zm32.33-8.41c-.66-.53-1.4-.91-2.26-1.04-.07 0-.15.03-.2-.06l-.16-.01-.04.04c0-.02-.02-.03-.03-.05l-.27-.03c-.04.03-.08.02-.1-.03l-.49-.02H74.9l-.05-.02v.04c0 .03-.03.05-.06.06l-2.04 2.94c-.03.05-.08.1-.07.2.2.16.46.1.7.17 1.13.29 2.07.88 2.85 1.74.4.44.46 1.25.13 1.67.06.1.13.16.25.2.48.13.83.46.94.92.1.4.15.83.05 1.24-.05.25-.02.5-.07.74a6.68 6.68 0 01-.7 1.83c.13.18.3.1.46.1a90327.87 90327.87 0 0036.99-.02c.48-.02.97-.08 1.43-.23a5.6 5.6 0 003.76-3.47c.13-.34.31-.67.37-1.03a5.85 5.85 0 00-2.23-5.88z"/><path fill="#FEEE01" d="M80.32 40.34c.76 0 1.56.02 2.35 0 .23-.02.4-.19.5-.41a.76.76 0 00-.7-1.08h-1.91c-.1 0-.2-.04-.3.07v1.2c0 .07-.02.13.06.22m-.04 1.64v2.39c.95 0 1.88.04 2.8-.01.58-.04 1.11-.7 1.05-1.23-.1-.75-.64-1.16-1.25-1.15H80.28m4.9-2.84v.52c-.07.04-.06.1-.03.16-.04.38-.22.71-.42 1.04.1.13.2.24.34.33.35.24.55.61.71.99a2.79 2.79 0 01-.51 3.19c-.51.57-1.2.87-1.96.88-1.54.02-3.07 0-4.61 0-.06 0-.13 0-.18-.03-.1-.25-.12-8.76-.03-9.2.1-.09.21-.06.32-.06h3.79a2.5 2.5 0 012.33 1.34c.11.2.15.4.2.6 0 .09-.04.18.06.24M90.05 40.4c-1.02-.06-2.03.88-2.01 2.02a2 2 0 002 2.01c1.24 0 2.03-.9 2.03-2.05a2 2 0 00-2.02-1.98m1.08-1.67a3.74 3.74 0 012.71 3.2c.04.25.05.5.05.75v3.11c0 .14.03.28-.09.46h-1.63c-.15-.16-.01-.36-.18-.5-.23.04-.43.18-.66.27-1.9.69-4.11-.26-4.85-2.2a3.27 3.27 0 01-.24-1.87c.04-.18-.01-.37.05-.55.15-.5.42-.92.72-1.33a3.72 3.72 0 012.68-1.48c.25.04.5.03.76 0l.52.08c.03.09.1.09.16.06M100.19 42.37a2 2 0 001.98 2.08c1 .03 2.07-1 2.06-2a2.13 2.13 0 00-2.01-2.08 1.96 1.96 0 00-2.03 2m-1.02-2.4c.3-.24.51-.55.83-.75a4.11 4.11 0 011.8-.62c1.24-.12 2.24.3 3.11 1.15.06.06.11.14.21.14.2.38.48.7.64 1.1a3.56 3.56 0 01-.4 3.55 3.71 3.71 0 01-3.27 1.7 3.7 3.7 0 01-3.7-3.44 3.94 3.94 0 01.75-2.77c.02-.02.02-.04.03-.07M116.71 42.42c0-1.02-1-2.04-2.04-2.06-1.06-.03-2.02.94-2.02 2.04a2 2 0 002 2.05c1.1 0 2.09-1.1 2.06-2.03m-5.03-2.53c.26-.2.46-.45.73-.63a3.83 3.83 0 015.08.55l.12.09c0 .18.16.27.25.4a3.74 3.74 0 01-.8 5.1c-.73.59-1.58.9-2.53.85a3.76 3.76 0 01-3.68-3.97c0-.82.27-1.56.76-2.22.04-.05.07-.1.07-.17"/><path fill="#FEEE01" d="M106.33 39.9c.05-.82.01-1.63.02-2.44V37h1.76c.1.52 0 1.06.07 1.62h1.72c.1.44.01.86.06 1.28-.05.15.02.32-.1.52h-1.63c-.1.13-.08.24-.08.33v1.83a1.7 1.7 0 001.07 1.65c.14.06.26.19.44.17.03.08.09.07.16.04h1.26v1.76c-.5.03-1-.03-1.51.03l-.29-.03c-.04-.07-.1-.08-.16-.05-.89-.28-1.6-.8-2.14-1.56a3.14 3.14 0 01-.63-1.8l-.02-2.89M94.13 39.81c.11-.1.06-.24.06-.35v-2.41h1.7c.07.13.03.26.03.38v2.17c.01.12-.04.25.05.36l.01 2.72c0 .88.43 1.45 1.3 1.72.03.07.1.06.15.04.43.07.87-.02 1.32.05v1.77h-1.4c-.06-.1-.15-.07-.23-.05a3.5 3.5 0 01-2.95-3.45c.02-.79 0-1.57 0-2.36 0-.2 0-.4-.04-.59"/><path fill="#F16722" d="M109.57 46.23c.5-.07 1 0 1.5-.04.01.08 0 .18-.08.18h-1.33c-.06 0-.07-.08-.09-.14M90.45 38.6c-.25.04-.5.04-.76 0 .2-.27.46-.1.69-.12.05 0 .06.07.07.13M97.12 46.22c.08-.03.17-.06.23.06-.1.15-.18.12-.23-.06M85.2 39.14c-.11-.06-.08-.15-.06-.24.18.05.23.13.06.24M85.16 39.84c-.04-.07-.05-.14.05-.18.18.1.1.15-.05.18M97.46 44.48c-.07.04-.14.05-.19-.05.1-.2.15-.09.19.05M109.84 44.48c-.08.04-.14.05-.18-.06.1-.18.14-.08.18.06M91.16 38.78c-.08.04-.15.04-.19-.08.12-.16.15-.04.19.08M109.12 46.14c.08-.03.14-.02.18.08-.1.17-.15.06-.18-.08M74.79 35.92c-.02-.1.04-.15.15-.14-.02.08-.07.13-.15.14"/><path fill="#0C1B4C" d="M70.26 47.65c.14-.05.22.02.3.11 0 .05 0 .1-.06.14-.13-.03-.25-.07-.24-.25M69.4 46.98c.12.03.2.1.22.23-.2.05-.27-.03-.23-.23"/><path fill="#003F7F" d="M70.95 47.97c.12 0 .22 0 .25.15-.12.03-.27.1-.25-.15M71.3 48.1c.14-.11.2.02.27.1-.1.04-.22.1-.26-.1"/><path fill="#0C1B4C" d="M69.17 46.68c.1.02.16.08.16.18-.17.02-.21-.04-.16-.18"/><path fill="#57A0D4" d="M77.22 43.5c-.05-.03-.07-.07-.04-.13l.12.04-.08.1"/><path fill="#003F7F" d="M70.65 47.8c.11-.03.15.03.16.13-.09 0-.14-.04-.16-.12M72.13 48.2c-.01-.04 0-.08.01-.1.08-.03.15 0 .14.07 0 .06-.09.07-.15.03"/><path fill="#003F7F" d="M72.03 48.28l.18-.15c.01.16-.06.2-.18.15"/><path fill="#E92024" d="M80.28 41.98H82.88c.6-.01 1.15.4 1.25 1.15.06.53-.47 1.2-1.06 1.23-.91.05-1.84 0-2.79 0v-2.38zM80.32 40.34c-.08-.09-.07-.15-.07-.21v-1.21c.1-.1.21-.07.3-.07h1.92c.57 0 .92.55.7 1.08-.1.22-.27.4-.5.4-.8.03-1.59.01-2.35.01M90.05 40.4a2 2 0 012.02 1.98c0 1.14-.79 2.04-2.04 2.05a2 2 0 01-2-2.01c-.01-1.14 1-2.08 2.02-2.02M100.19 42.37a1.96 1.96 0 012.03-2c1.09.04 2 .98 2.01 2.08.01 1-1.07 2.03-2.06 2a2 2 0 01-1.98-2.08M116.71 42.42c.03.94-.97 2.03-2.06 2.03a2 2 0 01-2-2.05c0-1.1.96-2.07 2.01-2.04 1.04.02 2.06 1.04 2.05 2.06"/><path fill="#F16722" d="M71.27 43.1c.94.59 1.65 1.47 2.64 1.96.24-.19.24-.19.26-.36a2.13 2.13 0 00-1.5-2.23c-.33-.1-.7-.12-1.02.04-.21.11-.45.24-.38.6m-1.53 2.25c-.32-.72-.17-1.4.22-2.03a2.29 2.29 0 012.33-1.1c.93.11 1.6.64 1.94 1.5.25.64.24 1.28-.1 1.9-.16.32-.3.63-.63.8-.06-.1.09-.19.05-.25l-3.73-2.28c-.09.35-.22.65-.13.98.04.16.05.31.05.48M73.47 46.55z"/><path fill="#F16722" d="M73.55 46.18l-3.73-2.28c-.09.35-.22.65-.13.98.04.16.05.31.05.48.1.12.04.33.22.41l.07.12c.06.02.08.06.08.11.18.34.48.52.79.72.15-.03.29 0 .38.14.22-.03.44.01.66.01.46.03.9-.05 1.27-.35.06-.05.13-.04.2-.03.01-.05.04-.07.09-.07-.06-.1.09-.18.05-.24M71.34 46.92h-.02.02z"/><path fill="#F16722" d="M70.09 45.96v-.02h-.01l.01.02zM71.27 46.86c.22-.03.45.01.67.01.46.03.9-.05 1.27-.35.06-.05.13-.04.2-.03v.04c-.5.47-1.5.63-2.14.33M70.9 46.72c.15-.04.29 0 .38.17-.16.02-.28-.06-.38-.17"/><path fill="#E92024" d="M69.97 45.77l.16.19c-.16-.02-.21-.08-.16-.19"/><path fill="#E92024" d="M70.03 45.9c.13.01.19.08.18.18-.1-.04-.18-.1-.18-.19"/><path fill="#F16722" d="M73.42 46.6c0-.13.07-.18.18-.18 0 .14-.07.19-.18.18"/><path fill="#FEFEFE" d="M71.27 43.1c-.07-.35.17-.48.38-.59.33-.16.69-.14 1.02-.04.96.3 1.59 1.21 1.5 2.23-.02.17-.02.17-.26.36-.99-.5-1.7-1.37-2.64-1.96"/><path fill="#FEFEFE" d="M70.03 45.9c0 .05.04.08.08.1.18.34.48.52.79.72.1.1.22.16.38.14.63.3 1.63.14 2.13-.33v-.04c.06 0 .09-.01.09-.07.33-.16.47-.47.63-.78.34-.63.35-1.27.1-1.9-.35-.87-1-1.4-1.94-1.51-.99-.12-1.8.27-2.33 1.1-.4.62-.54 1.31-.22 2.03.1.12.04.33.22.41-.03.07 0 .12.07.13zm4.94-2.6c-.24.37-.24.74-.22 1.12a2.77 2.77 0 01-2.84 2.95 2.8 2.8 0 01-2.59-3.48c.43-1.77 2.96-2.87 4.58-1.22.29.3.6.53 1.07.62z"/><path fill="#0C1B4C" d="M72.42 34.19l-5.16 7.45s-1.83 2.82-.1 5.67c0 0 1.7 3.68 6.01 2.76 0 0 3.14-.24 4.37-4.23 0 0 .87-2.84-1.1-3.35 0 0 1.03-1.4-1.26-2.64 0 0-1.44-.95-2.55-.89l2.6-3.74s.73-1.15-.5-2.04c0 0-1.24-.8-2.3 1"/><path fill="#F16722" d="M74.57 44.43a2.5 2.5 0 11-4.99 0 2.5 2.5 0 014.99 0"/><path stroke="#FFF" d="M74.57 44.43a2.5 2.5 0 11-4.99 0 2.5 2.5 0 014.99 0z"/><g><g transform="translate(65 9.05)"><mask id="b" fill="#fff"><use xlink:href="#a"/></mask><path fill="#88B83E" d="M9.4 6.1a3.37 3.37 0 100 0M9.36.98c.2-.85.31-.93 1.22-.93h.73c.51.01.76.26.8.77V12.6A6.07 6.07 0 01.19 14.3c-.16-.58.12-.96.71-.98h1.3c.36 0 .57.2.68.53a3.35 3.35 0 006.52-.9c.02-.48 0-.97.01-1.45.01-.3-.05-.37-.32-.2A6.09 6.09 0 01.08 7.12 6.04 6.04 0 019 .8l.28.16c.02.01.05 0 .07 0" mask="url(#b)"/></g><path fill="#88B83E" d="M108.9 18.5c1.85 0 3.38-1.5 3.38-3.33a3.4 3.4 0 00-3.35-3.4 3.37 3.37 0 10-.03 6.73zm6.05-3.37v5.1c0 .69-.24.93-.92.93h-.97c-.42 0-.71-.2-.78-.62-.04-.32-.16-.28-.38-.16a6.05 6.05 0 01-9.02-5.94 6.1 6.1 0 016.27-5.34c1 .04 1.92.31 2.77.8.23.14.33.19.37-.14.07-.46.3-.65.77-.66h1.01c.63 0 .88.24.88.89v5.14z"/><g transform="translate(77.56 9.05)"><mask id="d" fill="#fff"><use xlink:href="#c"/></mask><path fill="#265D3C" d="M2.73 6.05a3.36 3.36 0 003.3 3.4 3.36 3.36 0 10.1-6.73 3.36 3.36 0 00-3.4 3.33m6.7 5.12a6.12 6.12 0 01-8.1-1.38 6.04 6.04 0 01.13-7.59A6.12 6.12 0 019.42 1c.1-.08.04-.2.06-.3A.8.8 0 019.8.16c.27-.2 1.78-.17 2.05.02.27.2.3.46.3.76v10.24c0 .7-.24.93-.92.93h-.65c-.85 0-1.01-.13-1.15-.94" mask="url(#d)"/></g><path fill="#88B83E" d="M92.96 10.06a6.05 6.05 0 019.35 4.8c.06 1.83.03 3.65.02 5.47 0 .56-.26.82-.82.83h-1.01c-.58 0-.84-.26-.84-.84v-5.1a3.4 3.4 0 00-3.56-3.45c-1.6.05-3.12 1.46-3.17 3.07-.05 1.75-.02 3.51-.03 5.27 0 .88-.18 1.05-1.08 1.06h-.73c-.62-.02-.88-.28-.88-.9v-3.08-7.1c0-.79.22-1 1.02-1h.8c.57.01.74.16.86.72l.07.25"/><path fill="#265D3C" d="M108.84 23.74c-.01-.24-.06-.52-.43-.56-.3-.02-.48.23-.47.62 0 .3.1.59.45.59s.45-.28.45-.65zm.5-.33v1.05c0 .12-.01.24-.16.29-.13.04-.22 0-.26-.12-.07-.17-.14-.05-.2-.01-.46.21-.78.18-1.03-.1-.3-.34-.33-.98-.09-1.37.21-.32.57-.43 1-.26.29.12.27-.02.3-.22.01-.2-.12-.56.2-.56.37 0 .21.36.23.57.03.24 0 .49 0 .73zM110.7 23.65c.12-.08.37.1.37-.17 0-.2-.18-.33-.38-.33-.21 0-.4.1-.4.32.01.3.28.08.4.18m.03 1.12c-.4-.01-.73-.14-.89-.52-.17-.42-.14-.84.17-1.17.28-.31.66-.34 1.04-.21.25.07.41.24.5.49.13.37.02.53-.37.55h-.6c-.1.01-.25-.05-.29.08-.04.14.04.27.15.35.25.17.48.12.7-.06.1-.1.24-.26.37-.1.14.2-.04.32-.18.43-.18.14-.4.15-.6.16M105.67 23.93c0-.02-.01-.13-.15-.08-.23.08-.58 0-.65.35-.03.18.15.24.3.24.28 0 .46-.14.5-.51m-.37-1.13c.63.01.83.21.85.78.01.3-.05.6.06.89.04.1.02.19-.07.25-.1.07-.22.06-.29-.03-.13-.2-.26-.12-.4-.03a.87.87 0 01-.6.1c-.27-.04-.44-.21-.47-.48-.03-.26.1-.45.34-.53.23-.08.47-.1.7-.18.09-.03.25-.01.23-.17-.01-.15-.12-.23-.27-.25-.22-.03-.4.04-.53.22-.08.13-.2.2-.33.07-.13-.12-.05-.26.03-.36.21-.25.51-.27.75-.28M99.5 23.66c.11-.12.36.1.38-.15.02-.2-.15-.36-.39-.36-.2 0-.39.1-.39.32 0 .3.26.09.4.19m.04 1.1c-.4.02-.71-.12-.9-.49-.18-.38-.1-.96.17-1.21a.98.98 0 011.02-.2c.21.07.37.2.48.4.2.41.07.64-.4.65h-.52c-.1.02-.28-.06-.3.1-.03.16.05.31.23.38.25.1.46.03.66-.15.1-.08.22-.22.34-.05.1.14-.01.26-.11.35a.9.9 0 01-.67.23M103.14 24.76c-.46-.01-.77-.23-.88-.62-.13-.45.02-.94.34-1.17.33-.23.85-.23 1.18.02a.8.8 0 01.18.2c.07.11.1.23-.02.33-.13.1-.23.04-.31-.06-.19-.24-.42-.39-.7-.2-.25.19-.26.49-.18.77.11.42.49.5.8.2l.1-.13c.09-.1.19-.17.31-.08.12.1.1.22.04.33-.2.34-.5.42-.86.41M97.35 24.76c-.46 0-.79-.2-.91-.58-.15-.43 0-.97.32-1.2.34-.24.85-.24 1.18 0 .07.06.13.13.18.21.07.1.11.22-.02.32-.12.1-.23.05-.31-.05-.18-.25-.41-.39-.69-.2-.26.19-.27.48-.19.77.12.42.5.5.8.2l.13-.16c.08-.1.18-.13.28-.05.1.07.11.18.06.29-.16.35-.48.44-.83.45M113.65 24.76c-.46.03-.64-.15-.66-.49l-.01-.8c0-.1.03-.2-.07-.26-.25-.13-.27-.23 0-.37.15-.08.05-.28.08-.42.04-.14.08-.27.25-.27.16 0 .22.13.22.28 0 .22-.01.41.3.47.16.02.13.25-.05.27-.26.03-.25.18-.24.36l.01.6c0 .16.05.28.23.27.13-.01.3-.06.3.15-.02.18-.18.18-.31.2l-.05.01M100.8 23.76l.01-.68c.01-.2.15-.37.3-.24.19.15.28.1.43 0 .15-.09.31-.02.46.05.09.05.14.12.11.23-.03.13-.12.15-.24.15-.49 0-.56.07-.58.58v.64c-.01.15-.08.27-.25.27-.17 0-.23-.12-.23-.27v-.73zM114.67 23.82v.69c0 .13-.06.24-.2.25-.14.01-.25-.07-.25-.2-.02-.51-.02-1.02 0-1.53 0-.13.1-.23.24-.22.14.01.21.11.21.25v.76zM114.67 22.34c0 .14-.07.22-.21.23-.17 0-.25-.1-.25-.24 0-.14.1-.22.24-.21.13 0 .22.07.22.22"/><path fill="#88B83E" d="M83.66 17.63a2.67 2.67 0 01-2.57-1.95c-.04-.2-.05-.4.16-.49.24-.1.34.08.41.26.37.87 1.1 1.23 1.96 1.25.88.01 1.6-.37 2-1.2.09-.2.2-.43.46-.3.26.12.16.37.1.57a2.65 2.65 0 01-2.52 1.86"/></g></g></svg>