<?xml version="1.0" encoding="UTF-8"?>
<svg width="120px" height="38px" viewBox="0 0 120 38" version="1.1" xmlns="http://www.w3.org/2000/svg" xmlns:xlink="http://www.w3.org/1999/xlink">
    <!-- Generator: Sketch 52.6 (67491) - http://www.bohemiancoding.com/sketch -->
    <title>Group 51</title>
    <desc>Created with Sketch.</desc>
    <defs>
        <path d="M0.00902654867,6.13964602 C0.00371681416,8.26619469 1.90619469,8.84920354 2.84389381,6.98017699 C4.41345133,3.85274336 8.31929204,2.5879646 12.8102655,3.31327434 C14.0755752,3.51769912 13.3587611,2.69097345 11.7530973,1.86424779 C10.3152212,1.1240708 8.16477876,0.383893805 6.08654867,0.383893805 C3.30371681,0.383362832 0.650973451,1.71026549 0.00902654867,6.13964602" id="path-1"></path>
        <radialGradient cx="40.4356381%" cy="117.807073%" fx="40.4356381%" fy="117.807073%" r="105.495791%" gradientTransform="translate(0.404356,1.178071),scale(0.574144,1.000000),rotate(9.014641),translate(-0.404356,-1.178071)" id="radialGradient-3">
            <stop stop-color="#FB7E24" offset="0%"></stop>
            <stop stop-color="#FD591F" offset="100%"></stop>
        </radialGradient>
        <path d="M20.479646,0.391858407 C20.0346903,0.400353982 19.5488496,0.910619469 19.3338053,1.36513274 C19.2525664,1.53769912 19.1123894,1.67734513 18.9366372,1.75380531 C18.639823,1.88230088 18.3,2.19185841 18.1927434,2.56725664 C18.1258407,2.80247788 17.9548673,2.99044248 17.7292035,3.08336283 C17.4307965,3.2060177 17.1578761,3.44814159 17.019292,3.74230088 C14.6915044,3.32176991 12.0424779,3.67061947 9.53893805,4.69221239 C6.93982301,5.75309735 4.49734513,7.53876106 2.73504425,9.94035398 C0.972212389,12.3419469 -0.110442478,15.359469 0.00902654867,18.8830088 C0.157168142,17.9500885 0.736460177,17.2502655 1.60778761,16.7415929 C2.4780531,16.2334513 3.63982301,15.9159292 4.95345133,15.7476106 C6.2660177,15.579292 7.72938053,15.559646 9.20442478,15.6467257 C10.6789381,15.7327434 12.1646018,15.9265487 13.520708,16.1835398 C15.4072566,16.5414159 17.0532743,16.4442478 18.4322124,16.0369912 C19.8106195,15.6292035 20.9214159,14.9118584 21.7364602,14.0288496 C22.5509735,13.1458407 23.0692035,12.0966372 23.2624779,11.0261947 C23.4562832,9.95681416 23.3251327,8.86566372 22.840885,7.89823009 C22.1750442,6.5660177 21.2038938,5.55823009 20.0336283,4.85097345 C20.0702655,4.75858407 20.1228319,4.67256637 20.1929204,4.59823009 C20.379292,4.40123894 20.5523894,4.08212389 20.4217699,3.62920354 C20.3506195,3.38176991 20.4047788,3.11787611 20.560885,2.91345133 C20.6973451,2.73557522 20.8088496,2.48017699 20.7414159,2.15097345 C20.7074336,1.98530973 20.7297345,1.81327434 20.800354,1.65982301 C20.9633628,1.30460177 21.1699115,0.683362832 20.7477876,0.455575221 C20.6692035,0.413628319 20.5869027,0.393451327 20.5024779,0.391858407 L20.479646,0.391858407 Z" id="path-4"></path>
        <radialGradient cx="85.6468955%" cy="49.1612345%" fx="85.6468955%" fy="49.1612345%" r="126.652024%" gradientTransform="translate(0.856469,0.491612),scale(0.791967,1.000000),rotate(-175.124524),translate(-0.856469,-0.491612)" id="radialGradient-6">
            <stop stop-color="#FDD15B" offset="0%"></stop>
            <stop stop-color="#FDAF33" offset="100%"></stop>
        </radialGradient>
        <path d="M13.520708,7.15699115 C8.09681416,6.12849558 0.601061947,6.12318584 0.00902654867,9.85646018 C-0.119469027,6.06743363 1.14212389,2.8640708 3.14442478,0.382831858 C0.348849558,4.26743363 1.91362832,5.2460177 4.60778761,5.11858407 C12.5761062,4.74212389 19.3555752,10.3821239 23.159469,2.45362832" id="path-7"></path>
        <linearGradient x1="49.1284693%" y1="223.000275%" x2="50.7397182%" y2="-82.4779969%" id="linearGradient-9">
            <stop stop-color="#F9B648" offset="0%"></stop>
            <stop stop-color="#F99736" offset="100%"></stop>
        </linearGradient>
        <path d="M2.39522124,2.55026549 C4.31628319,5.47539823 3.45451327,9.48955752 0.576637168,13.0136283 C-1.93168142,16.0847788 13.6088496,7.67946903 4.54247788,0.517699115 C4.09061947,0.254336283 3.66159292,0.138053097 3.28831858,0.138053097 C2.14566372,0.138053097 1.53026549,1.23238938 2.39522124,2.55026549" id="path-10"></path>
        <radialGradient cx="-19.2733082%" cy="25.2329867%" fx="-19.2733082%" fy="25.2329867%" r="114.511165%" gradientTransform="translate(-0.192733,0.252330),scale(1.000000,0.525888),rotate(129.073444),translate(0.192733,-0.252330)" id="radialGradient-12">
            <stop stop-color="#CD002D" offset="0%"></stop>
            <stop stop-color="#A30011" offset="100%"></stop>
        </radialGradient>
        <path d="M8.25026549,2.9739823 C8.25451327,3.98176991 7.94707965,5.14619469 7.43469027,6.36690265 C6.92283186,7.58814159 6.20707965,8.86460177 5.39256637,10.0975221 C4.57911504,11.3309735 3.6679646,12.519292 2.76637168,13.5642478 C1.51115044,15.0175221 0.770973451,16.4915044 0.432743363,17.8890265 C0.0950442478,19.2860177 0.159823009,20.6070796 0.516106195,21.7545133 C0.872920354,22.9019469 1.52123894,23.8757522 2.3500885,24.579292 C3.17946903,25.2828319 4.18938053,25.7161062 5.26884956,25.7819469 C7.80743363,25.9364602 9.97486726,24.8500885 11.6044248,23.0293805 C12.0100885,22.5764602 12.380177,22.0762832 12.7168142,21.5389381 C12.8065487,21.3950442 12.9318584,21.2750442 13.0778761,21.1874336 C16.479823,19.1548673 16.8865487,18.0382301 14.7249558,17.8364602 C17.7430088,15.9074336 17.7090265,14.9214159 15.0684956,14.8762832 C17.0118584,13.3614159 16.759115,12.4959292 14.8030088,12.2952212 C14.6649558,10.620531 14.2672566,8.94106195 13.5727434,7.35663717 C12.3769912,4.6279646 10.3072566,2.17911504 7.19734513,0.517699115 C7.93061947,1.11292035 8.2460177,1.96513274 8.25026549,2.9739823" id="path-13"></path>
        <radialGradient cx="87.315288%" cy="1.60337168%" fx="87.315288%" fy="1.60337168%" r="136.492169%" gradientTransform="translate(0.873153,0.016034),scale(1.000000,0.664946),rotate(108.263149),translate(-0.873153,-0.016034)" id="radialGradient-15">
            <stop stop-color="#E2005B" offset="0%"></stop>
            <stop stop-color="#F23D95" offset="100%"></stop>
        </radialGradient>
        <path d="M2.76637168,13.5642478 C6.37327434,9.38548673 10.1320354,2.90017699 7.19734513,0.517699115 C10.5419469,2.30442478 12.6817699,5.00123894 13.8270796,7.97681416 C11.8651327,3.61168142 10.2345133,4.47557522 8.99522124,6.87079646 C5.32938053,13.9561062 -2.9479646,16.999646 2.00867257,24.2628319" id="path-16"></path>
        <linearGradient x1="-0.000153031334%" y1="50.0003989%" x2="100.000165%" y2="50.0003989%" id="linearGradient-18">
            <stop stop-color="#E20D67" offset="0%"></stop>
            <stop stop-color="#D30044" offset="100%"></stop>
        </linearGradient>
        <path d="M0.79380531,5.7860177 C1.82070796,9.24902655 4.38902655,12.7120354 9.82460177,10.5292035 C11.6665487,9.46619469 11.2152212,7.52814159 9.1279646,7.65557522 C5.63522124,7.86743363 2.58106195,5.12389381 0.954159292,0.875575221 C0.817699115,0.520353982 0.69079646,0.36159292 0.581946903,0.36159292 C0.131150442,0.36159292 -0.0100884956,3.07380531 0.79380531,5.7860177" id="path-19"></path>
        <radialGradient cx="90.737502%" cy="34.9132515%" fx="90.737502%" fy="34.9132515%" r="75.6752032%" gradientTransform="translate(0.907375,0.349133),scale(1.000000,0.992181),rotate(-111.112610),translate(-0.907375,-0.349133)" id="radialGradient-21">
            <stop stop-color="#31B191" offset="0%"></stop>
            <stop stop-color="#1F9075" offset="100%"></stop>
        </radialGradient>
        <path d="M4.63221239,0.732212389 C3.60955752,1.10176991 2.73132743,1.76230088 2.13769912,2.66654867 C0.871858407,4.59451327 0.642477876,6.7640708 1.1840708,8.88 C0.317522124,10.0709735 -0.0430088496,10.9120354 0.070619469,11.4090265 C0.204424779,11.9957522 1.00035398,12.1030088 2.4,11.7435398 C3.29097345,13.2355752 4.54088496,14.6224779 6.04141593,15.7815929 C8.2640708,17.4971681 11.0336283,18.7130973 13.9959292,19.0316814 C16.9576991,19.3513274 20.1106195,18.7736283 23.0989381,16.900885 C22.2175221,17.240708 21.3212389,17.0915044 20.4440708,16.5934513 C19.5674336,16.0959292 18.7099115,15.2495575 17.9049558,14.1987611 C17.100531,13.1479646 16.3486726,11.8916814 15.6833628,10.5722124 C15.0185841,9.25327434 14.439823,7.87115044 13.9815929,6.56920354 C13.9486726,6.47522124 13.9146903,6.38230088 13.879646,6.29097345 C15.0345133,5.43292035 15.4502655,4.7500885 15.080177,4.27752212 C14.7653097,3.87504425 13.8838938,3.62442478 12.4072566,3.54690265 C12.0876106,3.11681416 11.7467257,2.73238938 11.3904425,2.39522124 C10.3449558,1.40707965 9.16725664,0.806017699 7.99433628,0.545309735 C7.53026549,0.441769912 7.06672566,0.391858407 6.61327434,0.391858407 C5.92035398,0.391858407 5.24973451,0.508672566 4.63221239,0.732212389" id="path-22"></path>
        <radialGradient cx="75.7631426%" cy="89.4261695%" fx="75.7631426%" fy="89.4261695%" r="95.7535021%" gradientTransform="translate(0.757631,0.894262),scale(0.812328,1.000000),rotate(-132.443936),translate(-0.757631,-0.894262)" id="radialGradient-24">
            <stop stop-color="#3FDAA0" offset="0%"></stop>
            <stop stop-color="#7EF4C3" offset="100%"></stop>
        </radialGradient>
        <path d="M9.20283186,6.56920354 C11.0357522,11.7769912 14.7934513,18.2623009 18.320177,16.900885 C15.1067257,18.9138053 11.7031858,19.4304425 8.55185841,18.9446018 C13.3146903,19.4123894 13.3762832,17.5683186 11.9139823,15.3015929 C7.58867257,8.59858407 9.06371681,-0.0961061947 0.297345133,0.593097345" id="path-25"></path>
        <linearGradient x1="32.3218566%" y1="23.7491038%" x2="77.2953932%" y2="101.202907%" id="linearGradient-27">
            <stop stop-color="#4BD69E" offset="0%"></stop>
            <stop stop-color="#38C88C" offset="100%"></stop>
        </linearGradient>
    </defs>
    <g id="checkout" stroke="none" stroke-width="1" fill="none" fill-rule="evenodd">
        <g id="Payment-available-with-wallet" transform="translate(-661.000000, -530.000000)">
            <g id="Group-51" transform="translate(661.000000, 530.000000)">
                <g id="Group-3" transform="translate(0.000000, 12.882743)">
                    <mask id="mask-2" fill="white">
                        <use xlink:href="#path-1"></use>
                    </mask>
                    <g id="Clip-2"></g>
                    <path d="M0.00902654867,6.13964602 C0.00371681416,8.26619469 1.90619469,8.84920354 2.84389381,6.98017699 C4.41345133,3.85274336 8.31929204,2.5879646 12.8102655,3.31327434 C14.0755752,3.51769912 13.3587611,2.69097345 11.7530973,1.86424779 C10.3152212,1.1240708 8.16477876,0.383893805 6.08654867,0.383893805 C3.30371681,0.383362832 0.650973451,1.71026549 0.00902654867,6.13964602" id="Fill-1" fill="url(#radialGradient-3)" mask="url(#mask-2)"></path>
                </g>
                <g id="Group-6" transform="translate(0.000000, 0.139381)">
                    <mask id="mask-5" fill="white">
                        <use xlink:href="#path-4"></use>
                    </mask>
                    <g id="Clip-5"></g>
                    <path d="M20.479646,0.391858407 C20.0346903,0.400353982 19.5488496,0.910619469 19.3338053,1.36513274 C19.2525664,1.53769912 19.1123894,1.67734513 18.9366372,1.75380531 C18.639823,1.88230088 18.3,2.19185841 18.1927434,2.56725664 C18.1258407,2.80247788 17.9548673,2.99044248 17.7292035,3.08336283 C17.4307965,3.2060177 17.1578761,3.44814159 17.019292,3.74230088 C14.6915044,3.32176991 12.0424779,3.67061947 9.53893805,4.69221239 C6.93982301,5.75309735 4.49734513,7.53876106 2.73504425,9.94035398 C0.972212389,12.3419469 -0.110442478,15.359469 0.00902654867,18.8830088 C0.157168142,17.9500885 0.736460177,17.2502655 1.60778761,16.7415929 C2.4780531,16.2334513 3.63982301,15.9159292 4.95345133,15.7476106 C6.2660177,15.579292 7.72938053,15.559646 9.20442478,15.6467257 C10.6789381,15.7327434 12.1646018,15.9265487 13.520708,16.1835398 C15.4072566,16.5414159 17.0532743,16.4442478 18.4322124,16.0369912 C19.8106195,15.6292035 20.9214159,14.9118584 21.7364602,14.0288496 C22.5509735,13.1458407 23.0692035,12.0966372 23.2624779,11.0261947 C23.4562832,9.95681416 23.3251327,8.86566372 22.840885,7.89823009 C22.1750442,6.5660177 21.2038938,5.55823009 20.0336283,4.85097345 C20.0702655,4.75858407 20.1228319,4.67256637 20.1929204,4.59823009 C20.379292,4.40123894 20.5523894,4.08212389 20.4217699,3.62920354 C20.3506195,3.38176991 20.4047788,3.11787611 20.560885,2.91345133 C20.6973451,2.73557522 20.8088496,2.48017699 20.7414159,2.15097345 C20.7074336,1.98530973 20.7297345,1.81327434 20.800354,1.65982301 C20.9633628,1.30460177 21.1699115,0.683362832 20.7477876,0.455575221 C20.6692035,0.413628319 20.5869027,0.393451327 20.5024779,0.391858407 L20.479646,0.391858407 Z" id="Fill-4" fill="url(#radialGradient-6)" mask="url(#mask-5)"></path>
                </g>
                <g id="Group-9" transform="translate(0.000000, 9.165929)">
                    <mask id="mask-8" fill="white">
                        <use xlink:href="#path-7"></use>
                    </mask>
                    <g id="Clip-8"></g>
                    <path d="M13.520708,7.15699115 C18.9116814,8.17964602 22.3449558,5.48654867 23.159469,2.45362832 C19.3555752,10.3821239 12.5761062,4.74212389 4.60778761,5.11858407 C1.91362832,5.2460177 0.348849558,4.26743363 3.14442478,0.382831858 C1.14212389,2.8640708 -0.119469027,6.06743363 0.00902654867,9.85646018 C0.601061947,6.12318584 8.09681416,6.12849558 13.520708,7.15699115" id="Fill-7" fill="url(#linearGradient-9)" mask="url(#mask-8)"></path>
                </g>
                <g id="Group-12" transform="translate(22.831858, 3.325221)">
                    <mask id="mask-11" fill="white">
                        <use xlink:href="#path-10"></use>
                    </mask>
                    <g id="Clip-11"></g>
                    <path d="M2.39522124,2.55026549 C4.31628319,5.47539823 3.45451327,9.48955752 0.576637168,13.0136283 C-1.93168142,16.0847788 13.6088496,7.67946903 4.54247788,0.517699115 C4.09061947,0.254336283 3.66159292,0.138053097 3.28831858,0.138053097 C2.14566372,0.138053097 1.53026549,1.23238938 2.39522124,2.55026549" id="Fill-10" fill="url(#radialGradient-12)" mask="url(#mask-11)"></path>
                </g>
                <g id="Group-15" transform="translate(20.176991, 3.325221)">
                    <mask id="mask-14" fill="white">
                        <use xlink:href="#path-13"></use>
                    </mask>
                    <g id="Clip-14"></g>
                    <path d="M8.25026549,2.9739823 C8.25451327,3.98176991 7.94707965,5.14619469 7.43469027,6.36690265 C6.92283186,7.58814159 6.20707965,8.86460177 5.39256637,10.0975221 C4.57911504,11.3309735 3.6679646,12.519292 2.76637168,13.5642478 C1.51115044,15.0175221 0.770973451,16.4915044 0.432743363,17.8890265 C0.0950442478,19.2860177 0.159823009,20.6070796 0.516106195,21.7545133 C0.872920354,22.9019469 1.52123894,23.8757522 2.3500885,24.579292 C3.17946903,25.2828319 4.18938053,25.7161062 5.26884956,25.7819469 C7.80743363,25.9364602 9.97486726,24.8500885 11.6044248,23.0293805 C12.0100885,22.5764602 12.380177,22.0762832 12.7168142,21.5389381 C12.8065487,21.3950442 12.9318584,21.2750442 13.0778761,21.1874336 C16.479823,19.1548673 16.8865487,18.0382301 14.7249558,17.8364602 C17.7430088,15.9074336 17.7090265,14.9214159 15.0684956,14.8762832 C17.0118584,13.3614159 16.759115,12.4959292 14.8030088,12.2952212 C14.6649558,10.620531 14.2672566,8.94106195 13.5727434,7.35663717 C12.3769912,4.6279646 10.3072566,2.17911504 7.19734513,0.517699115 C7.93061947,1.11292035 8.2460177,1.96513274 8.25026549,2.9739823" id="Fill-13" fill="url(#radialGradient-15)" mask="url(#mask-14)"></path>
                </g>
                <g id="Group-18" transform="translate(20.176991, 3.325221)">
                    <mask id="mask-17" fill="white">
                        <use xlink:href="#path-16"></use>
                    </mask>
                    <g id="Clip-17"></g>
                    <path d="M2.76637168,13.5642478 C-0.819292035,17.7185841 -0.207610619,22.039115 2.00867257,24.2628319 C-2.9479646,16.999646 5.32938053,13.9561062 8.99522124,6.87079646 C10.2345133,4.47557522 11.8651327,3.61168142 13.8270796,7.97681416 C12.6817699,5.00123894 10.5419469,2.30442478 7.19734513,0.517699115 C10.1320354,2.90017699 6.37327434,9.38548673 2.76637168,13.5642478" id="Fill-16" fill="url(#linearGradient-18)" mask="url(#mask-17)"></path>
                </g>
                <g id="Group-21" transform="translate(16.991150, 24.564159)">
                    <mask id="mask-20" fill="white">
                        <use xlink:href="#path-19"></use>
                    </mask>
                    <g id="Clip-20"></g>
                    <path d="M0.79380531,5.7860177 C1.82070796,9.24902655 4.38902655,12.7120354 9.82460177,10.5292035 C11.6665487,9.46619469 11.2152212,7.52814159 9.1279646,7.65557522 C5.63522124,7.86743363 2.58106195,5.12389381 0.954159292,0.875575221 C0.817699115,0.520353982 0.69079646,0.36159292 0.581946903,0.36159292 C0.131150442,0.36159292 -0.0100884956,3.07380531 0.79380531,5.7860177" id="Fill-19" fill="url(#radialGradient-21)" mask="url(#mask-20)"></path>
                </g>
                <g id="Group-24" transform="translate(3.716814, 18.192478)">
                    <mask id="mask-23" fill="white">
                        <use xlink:href="#path-22"></use>
                    </mask>
                    <g id="Clip-23"></g>
                    <path d="M4.63221239,0.732212389 C3.60955752,1.10176991 2.73132743,1.76230088 2.13769912,2.66654867 C0.871858407,4.59451327 0.642477876,6.7640708 1.1840708,8.88 C0.317522124,10.0709735 -0.0430088496,10.9120354 0.070619469,11.4090265 C0.204424779,11.9957522 1.00035398,12.1030088 2.4,11.7435398 C3.29097345,13.2355752 4.54088496,14.6224779 6.04141593,15.7815929 C8.2640708,17.4971681 11.0336283,18.7130973 13.9959292,19.0316814 C16.9576991,19.3513274 20.1106195,18.7736283 23.0989381,16.900885 C22.2175221,17.240708 21.3212389,17.0915044 20.4440708,16.5934513 C19.5674336,16.0959292 18.7099115,15.2495575 17.9049558,14.1987611 C17.100531,13.1479646 16.3486726,11.8916814 15.6833628,10.5722124 C15.0185841,9.25327434 14.439823,7.87115044 13.9815929,6.56920354 C13.9486726,6.47522124 13.9146903,6.38230088 13.879646,6.29097345 C15.0345133,5.43292035 15.4502655,4.7500885 15.080177,4.27752212 C14.7653097,3.87504425 13.8838938,3.62442478 12.4072566,3.54690265 C12.0876106,3.11681416 11.7467257,2.73238938 11.3904425,2.39522124 C10.3449558,1.40707965 9.16725664,0.806017699 7.99433628,0.545309735 C7.53026549,0.441769912 7.06672566,0.391858407 6.61327434,0.391858407 C5.92035398,0.391858407 5.24973451,0.508672566 4.63221239,0.732212389" id="Fill-22" fill="url(#radialGradient-24)" mask="url(#mask-23)"></path>
                </g>
                <g id="Group-27" transform="translate(8.495575, 18.192478)">
                    <mask id="mask-26" fill="white">
                        <use xlink:href="#path-25"></use>
                    </mask>
                    <g id="Clip-26"></g>
                    <path d="M9.20283186,6.56920354 C7.38159292,1.39327434 3.32920354,-0.224070796 0.297345133,0.593097345 C9.06371681,-0.0961061947 7.58867257,8.59858407 11.9139823,15.3015929 C13.3762832,17.5683186 13.3146903,19.4123894 8.55185841,18.9446018 C11.7031858,19.4304425 15.1067257,18.9138053 18.320177,16.900885 C14.7934513,18.2623009 11.0357522,11.7769912 9.20283186,6.56920354" id="Fill-25" fill="url(#linearGradient-27)" mask="url(#mask-26)"></path>
                </g>
                <g id="Group-50" transform="translate(43.539823, 2.794248)" fill="#45229C">
                    <path d="M20.8075752,8.38614159 C21.0050973,8.13923894 21.231292,7.89286726 21.4861593,7.6459646 C21.7410265,7.39906195 22.0415575,7.17711504 22.3872212,6.97959292 C22.732354,6.7820708 23.131646,6.62171681 23.5840354,6.498 C24.0364248,6.37481416 24.5589027,6.31322124 25.151469,6.31322124 C25.7435044,6.31322124 26.3196106,6.38702655 26.8792566,6.53516814 C27.4383717,6.68330973 27.932177,6.93021239 28.3601416,7.27534513 C28.7875752,7.62153982 29.1289912,8.06915044 29.3838584,8.62083186 C29.6392566,9.1719823 29.7666903,9.85109735 29.7666903,10.6565841 L29.7666903,19.7643717 L24.6332389,19.7643717 L24.6332389,12.2118053 C24.6332389,11.6856106 24.5259823,11.2289735 24.312,10.8418938 C24.0980177,10.4553451 23.6785487,10.2620708 23.0530619,10.2620708 C22.7079292,10.2620708 22.411646,10.3236637 22.1652743,10.4473805 C21.9183717,10.5705664 21.7081062,10.7224248 21.5355398,10.9034867 C21.3629735,11.0845487 21.2355398,11.2863186 21.152708,11.5082655 C21.0704071,11.7307434 21.0210265,11.9484425 21.0050973,12.1624248 L21.0050973,19.7643717 L15.871115,19.7643717 L15.871115,6.56012389 L16.0574867,6.56012389 C17.811823,6.56012389 19.5045664,7.21056637 20.8075752,8.38614159" id="Fill-28"></path>
                    <path d="M55.7823186,14.4083363 C55.7823186,15.6757699 55.2555929,16.3086903 54.2026726,16.3086903 C53.5777168,16.3086903 53.0881593,16.1276283 52.734531,15.7660354 C52.3803717,15.4039115 52.2035575,15.0168319 52.2035575,14.6058584 L52.2035575,11.9403717 C52.2035575,11.7263894 52.2492212,11.5081593 52.3394867,11.2862124 C52.4302832,11.0642655 52.5651504,10.8582478 52.7462124,10.6692212 C52.9272743,10.4801947 53.1497522,10.3240885 53.4125841,10.2003717 C53.6759469,10.0771858 53.9722301,10.0155929 54.3014336,10.0155929 C54.8276283,10.0155929 55.2062124,10.1839115 55.4366549,10.5216106 C55.6670973,10.8582478 55.7823186,11.3478053 55.7823186,11.9897522 L55.7823186,14.4083363 Z M60.4963009,8.76886726 C60.2170088,8.23417699 59.854885,7.78550442 59.4104602,7.4239115 C58.9660354,7.06178761 58.4685133,6.78621239 57.9173628,6.59665487 C57.3656814,6.40762832 56.8187788,6.31311504 56.2761239,6.31311504 C55.5024956,6.31311504 54.7501062,6.47718584 54.0178938,6.80692035 C53.2856814,7.13612389 52.6803717,7.53860177 52.2035575,8.01647788 L52.2035575,3.72249558 L52.2035575,2.4699292 C52.2035575,2.12267257 52.1950619,1.73134513 51.8982478,1.49930973 C50.6563009,0.538778761 49.1302832,0.0168318584 47.5596637,0.0168318584 L47.0701062,0.0168318584 L47.0701062,2.4380708 L47.0701062,4.32939823 L47.0701062,19.7642655 L47.5596637,19.7642655 C49.1302832,19.7642655 50.6563009,19.2423186 51.8987788,18.2817876 L52.0554159,18.1596637 C52.2529381,18.4065664 52.4711681,18.6449735 52.7095752,18.8754159 C52.9479823,19.1063894 53.2198407,19.3033805 53.5240885,19.4679823 C53.8283363,19.6325841 54.174,19.7642655 54.5605487,19.8630265 C54.9470973,19.9617876 55.3952389,20.0111681 55.9055044,20.0111681 C56.5968319,20.0111681 57.2467434,19.9118761 57.8552389,19.714885 C58.4642655,19.5173628 58.9952389,19.2295752 59.4470973,18.8509912 C59.9000177,18.4724071 60.2578938,18.0078053 60.5212566,17.4566549 C60.7840885,16.9055044 60.9157699,16.2763009 60.9157699,15.5685133 L60.9157699,10.6325841 C60.9157699,9.92479646 60.7761239,9.3040885 60.4963009,8.76886726 Z" id="Fill-30"></path>
                    <path d="M70.1108496,16.1235929 C70.3736814,16.0004071 70.5961593,15.8443009 70.7772212,15.6547434 C70.9582832,15.4657168 71.0942124,15.2596991 71.1839469,15.0377522 C71.2747434,14.8158053 71.3198761,14.5975752 71.3198761,14.3835929 L71.3198761,11.5949204 C71.2869558,11.2163363 71.0942124,10.8584602 70.7400531,10.521292 C70.3864248,10.1835929 69.9133274,10.0152743 69.3207611,10.0152743 C68.2678407,10.0152743 67.741115,10.6481947 67.741115,11.9156283 L67.741115,14.3347434 C67.741115,14.9761593 67.8563363,15.4657168 68.0867788,15.802885 C68.3172212,16.1400531 68.6958053,16.3089027 69.222,16.3089027 C69.5512035,16.3089027 69.8474867,16.2467788 70.1108496,16.1235929 M63.002177,8.99102655 C63.2655398,8.42341593 63.6234159,7.94182301 64.0763363,7.54730973 C64.5281947,7.15226549 65.0591681,6.84748673 65.6681947,6.6340354 C66.2766903,6.4200531 66.9271327,6.31279646 67.6179292,6.31279646 C68.0952743,6.31279646 68.5232389,6.3579292 68.901292,6.44872566 C69.2798761,6.53899115 69.6170442,6.66642478 69.9133274,6.83155752 C70.2096106,6.99615929 70.4766903,7.18093805 70.7156283,7.38642478 C70.9540354,7.59244248 71.1717345,7.81810619 71.3692566,8.06500885 L71.8243009,7.76076106 C72.9919115,6.97757522 74.3660708,6.55969912 75.7715575,6.55969912 L76.4533274,6.55969912 L76.4533274,19.7639469 L75.7720885,19.7639469 C74.3660708,19.7639469 72.9919115,19.3460708 71.8243009,18.5634159 L71.3692566,18.2586372 C70.9089027,18.7683717 70.2993451,19.1883717 69.5432389,19.5175752 C68.7860708,19.8467788 68.0209381,20.0108496 67.2473097,20.0108496 C66.7046549,20.0108496 66.1577522,19.9248319 65.6066018,19.7517345 C65.0554513,19.5791681 64.5573982,19.3200531 64.1129735,18.9743894 C63.6685487,18.6287257 63.3069558,18.1965133 63.0271327,17.6788142 C62.7478407,17.1600531 62.6076637,16.5473097 62.6076637,15.8400531 L62.6076637,10.9035929 C62.6076637,10.1963363 62.7393451,9.55863717 63.002177,8.99102655" id="Fill-32"></path>
                    <path d="M37.0116106,10.2865487 C37.2909027,9.92442478 37.8181593,9.74389381 38.5912566,9.74389381 C39.3149735,9.74389381 39.8167434,9.9 40.0970973,10.2127434 C40.3763894,10.5249558 40.5165664,10.9449558 40.5165664,11.4711504 L40.5165664,11.5948673 L36.5916106,11.5948673 C36.5916106,11.0846018 36.7317876,10.6492035 37.0116106,10.2865487 Z M45.3786903,14.0378761 L45.3786903,11.3729204 C45.3786903,10.6492035 45.2055929,9.9780531 44.8599292,9.36159292 C44.5147965,8.74460177 44.0337345,8.20938053 43.4167434,7.75646018 C42.7992212,7.30460177 42.0712566,6.95097345 41.2317876,6.69557522 C40.3928496,6.44070796 39.4880708,6.31327434 38.5169204,6.31327434 C37.4969204,6.31327434 36.5549735,6.45716814 35.6916106,6.74495575 C34.8271858,7.03274336 34.0827611,7.42778761 33.4578053,7.9300885 C32.8323186,8.43132743 32.3427611,9.01964602 31.9891327,9.69451327 C31.6349735,10.3688496 31.4581593,11.1010619 31.4581593,11.8906195 L31.4581593,14.9761062 C31.4581593,15.8649558 31.664177,16.6253097 32.0751504,17.259292 C32.4871858,17.8922124 33.0255929,18.4109735 33.6919646,18.8139823 C34.3583363,19.2169912 35.1229381,19.5175221 35.9873628,19.7150442 C36.8512566,19.9120354 37.743823,20.0107965 38.6650619,20.0107965 C39.6691327,20.0107965 40.5824071,19.899823 41.404354,19.6778761 C42.2273628,19.4559292 42.9346195,19.1389381 43.5271858,18.7274336 C44.1197522,18.3164602 44.5763894,17.8306195 44.8970973,17.2715044 C44.9894867,17.1100885 45.0675398,16.9428319 45.1333805,16.7713274 C43.9450619,15.7295575 42.4195752,15.1518584 40.8367434,15.1492035 L40.8367434,15.3217699 C40.8367434,16.0619469 40.1624071,16.4320354 38.8137345,16.4320354 C38.0565664,16.4320354 37.4969204,16.3046018 37.1347965,16.0497345 C36.7732035,15.7948673 36.5916106,15.3546903 36.5916106,14.7292035 L36.5916106,14.0378761 L45.3786903,14.0378761 Z" id="Fill-34"></path>
                    <path d="M5.81277876,10.2865487 C6.09260177,9.92442478 6.61932743,9.74389381 7.39242478,9.74389381 C8.11667257,9.74389381 8.61844248,9.9 8.89826549,10.2127434 C9.1780885,10.5249558 9.31773451,10.9449558 9.31773451,11.4711504 L9.31773451,11.5948673 L5.39330973,11.5948673 C5.39330973,11.0846018 5.53348673,10.6492035 5.81277876,10.2865487 Z M14.1798584,14.0378761 L14.1798584,11.3729204 C14.1798584,10.6492035 14.007292,9.9780531 13.6616283,9.36159292 C13.3159646,8.74460177 12.8349027,8.20938053 12.2179115,7.75646018 C11.6003894,7.30460177 10.8724248,6.95097345 10.0334867,6.69557522 C9.1940177,6.44070796 8.28923894,6.31327434 7.31861947,6.31327434 C6.2980885,6.31327434 5.35667257,6.45716814 4.49277876,6.74495575 C3.62888496,7.03274336 2.8839292,7.42778761 2.25897345,7.9300885 C1.63348673,8.43132743 1.1439292,9.01964602 0.790300885,9.69451327 C0.436672566,10.3688496 0.259858407,11.1010619 0.259858407,11.8906195 L0.259858407,14.9761062 C0.259858407,15.8649558 0.465345133,16.6253097 0.876318584,17.259292 C1.28835398,17.8922124 1.82676106,18.4109735 2.49313274,18.8139823 C3.1600354,19.2169912 3.92463717,19.5175221 4.78853097,19.7150442 C5.65242478,19.9120354 6.54499115,20.0107965 7.46623009,20.0107965 C8.47030088,20.0107965 9.38357522,19.899823 10.2060531,19.6778761 C11.028531,19.4559292 11.7363186,19.1389381 12.328354,18.7274336 C12.9209204,18.3164602 13.3775575,17.8306195 13.6987965,17.2715044 C13.7911858,17.1100885 13.868708,16.9428319 13.9350796,16.7713274 C12.7462301,15.7295575 11.2207434,15.1518584 9.63844248,15.1492035 L9.63844248,15.3217699 C9.63844248,16.0619469 8.96410619,16.4320354 7.61490265,16.4320354 C6.85773451,16.4320354 6.2980885,16.3046018 5.9359646,16.0497345 C5.57437168,15.7948673 5.39330973,15.3546903 5.39330973,14.7292035 L5.39330973,14.0378761 L14.1798584,14.0378761 Z" id="Fill-36"></path>
                    <path d="M41.0773805,29.673292 L41.4458761,26.7104602 C41.6311858,25.2853274 42.8449912,24.2191327 44.2823363,24.2191327 L44.3943717,24.2191327 L42.4186195,32.0759469 L39.5736637,32.0759469 L38.8658761,29.0398407 L38.3943717,26.7693982 L37.8787965,29.1428496 L37.1858761,32.0759469 L34.3403894,32.0759469 L32.4092389,24.2196637 L32.6810973,24.2196637 C34.1051681,24.2196637 35.3110088,25.2699292 35.5053451,26.6807257 L35.8733097,29.5846195 L36.4929558,26.7401947 L36.7456991,25.6033805 C36.9251681,24.794708 37.6419823,24.2191327 38.4708319,24.2191327 C39.2964956,24.2191327 40.0127788,24.7915221 40.1949027,25.5964779 L40.4433982,26.6961239 L41.0773805,29.673292 Z" id="Fill-38"></path>
                    <path d="M49.0207434,30.1259469 C49.1699469,30.0585133 49.3000354,29.9746195 49.4104779,29.8726726 C49.5214513,29.7717876 49.608,29.6586903 49.6711858,29.5339115 C49.7338407,29.4080708 49.7694159,29.2880708 49.7795044,29.1723186 L49.7795044,27.2220531 C49.7795044,26.9809912 49.6711858,26.7547965 49.4540177,26.543469 C49.2373805,26.3316106 48.9464071,26.224885 48.5800354,26.224885 C48.2720708,26.224885 48.0336637,26.3167434 47.8653451,26.4999292 C47.6964956,26.683115 47.6126018,26.9618761 47.6126018,27.3378053 L47.6126018,29.0714336 C47.6126018,29.8418761 47.9157876,30.2268319 48.5226903,30.2268319 C48.7053451,30.2268319 48.8715398,30.1933805 49.0207434,30.1259469 M45.148885,25.7778053 C45.2980885,25.4496637 45.4982655,25.1703717 45.748885,24.9393982 C45.9995044,24.7084248 46.2926018,24.5326726 46.6297699,24.4121416 C46.9669381,24.2921416 47.3237522,24.2316106 47.6991504,24.2316106 C48.2189735,24.2316106 48.6400354,24.3330265 48.9633982,24.5353274 C49.2856991,24.7370973 49.567115,24.9781593 49.808177,25.2574513 L49.8432212,25.2314336 C50.5993274,24.6755044 51.5131327,24.3760354 52.4518938,24.3760354 L52.4518938,32.0762124 C51.5131327,32.0762124 50.5993274,31.7762124 49.8432212,31.2208142 L49.808177,31.1953274 C49.548,31.4932035 49.2134867,31.7390442 48.8041062,31.9317876 C48.3947257,32.124531 47.968885,32.2206372 47.5255221,32.2206372 C47.208,32.2206372 46.8920708,32.1680708 46.5793274,32.0618761 C46.2665841,31.9556814 45.9867611,31.7990442 45.7414513,31.5924956 C45.4956106,31.384885 45.2980885,31.1278938 45.148885,30.8193982 C45.0002124,30.5114336 44.9253451,30.1498407 44.9253451,29.7362124 L44.9253451,26.8896637 C44.9253451,26.4755044 45.0002124,26.104885 45.148885,25.7778053" id="Fill-40"></path>
                    <path d="M56.6451504,21.9347788 L56.6451504,32.0763717 L53.9727611,32.0763717 L53.9727611,24.6066372 C53.9727611,23.1310619 55.1695752,21.9347788 56.6451504,21.9347788" id="Fill-42"></path>
                    <path d="M60.8379823,21.9347788 L60.8379823,32.0763717 L58.1655929,32.0763717 L58.1655929,24.6066372 C58.1655929,23.1310619 59.3624071,21.9347788 60.8379823,21.9347788" id="Fill-44"></path>
                    <path d="M75.348,32.1761947 C75.0384425,32.2059292 74.7517168,32.2202655 74.4867611,32.2202655 C74.1432212,32.2202655 73.8219823,32.1910619 73.5225133,32.1321239 C73.2230442,32.0737168 72.9655221,31.9749558 72.7494159,31.8379646 C72.5338407,31.7004425 72.3644602,31.5188496 72.2418053,31.2931858 C72.1191504,31.0675221 72.0580885,30.7882301 72.0580885,30.4542478 L72.0580885,26.2000885 L71.2191504,26.2000885 L71.2191504,24.2269912 L72.0580885,24.2269912 L72.0750796,24.1866372 C72.5380885,23.1209735 73.5894159,22.4312389 74.7517168,22.430708 L74.7517168,24.2269912 L76.1205664,24.2269912 L76.1205664,26.1995575 L74.7517168,26.1995575 L74.7517168,29.4230973 C74.7517168,29.6784956 74.8255221,29.8526549 74.9726018,29.9461062 C75.1196814,30.0395575 75.3750796,30.0857522 75.7377345,30.0857522 L75.9734867,30.0857522 C76.0515398,30.0857522 76.1402124,30.0809735 76.2389735,30.070885 L76.2389735,32.0439823 C75.9543717,32.1023894 75.6570265,32.1464602 75.348,32.1761947" id="Fill-46"></path>
                    <path d="M65.6074513,26.5439469 C65.7715221,26.3326195 66.0794867,26.2264248 66.5313451,26.2264248 C66.9550619,26.2264248 67.2486903,26.3177522 67.4122301,26.5009381 C67.5757699,26.6835929 67.6575398,26.9294336 67.6575398,27.2373982 L67.6575398,27.3090796 L65.3621416,27.3090796 C65.3621416,27.0106726 65.4439115,26.7558053 65.6074513,26.5439469 Z M70.5024956,28.7389912 L70.5024956,27.1789912 C70.5024956,26.7558053 70.4010796,26.3634159 70.1987788,26.002354 C69.9970088,25.641823 69.7150619,25.3290796 69.354531,25.0641239 C68.993469,24.7996991 68.5670973,24.5920885 68.0764779,24.4434159 C67.5858584,24.2942124 67.0564779,24.2193451 66.4883363,24.2193451 C65.8915221,24.2193451 65.3403717,24.3032389 64.8354159,24.4720885 C64.3299292,24.6404071 63.894,24.8719115 63.5281593,25.1650088 C63.1628496,25.4586372 62.8761239,25.802708 62.6695752,26.1977522 C62.4624956,26.5922655 62.3589558,27.0202301 62.3589558,27.482708 L62.3589558,29.2874867 C62.3589558,29.8073097 62.4789558,30.2522655 62.7200177,30.622885 C62.9605487,30.9935044 63.2754159,31.2966903 63.6656814,31.5329735 C64.0554159,31.7681947 64.5030265,31.9439469 65.0085133,32.0596991 C65.513469,32.1749204 66.0359469,32.2327965 66.574885,32.2327965 C67.1621416,32.2327965 67.6963009,32.1680177 68.1778938,32.0379292 C68.6589558,31.9083717 69.0725841,31.722531 69.4193097,31.482 C69.7655044,31.241469 70.033115,30.9573982 70.2205487,30.6297876 C70.274708,30.5358053 70.3203717,30.4381062 70.3586018,30.3377522 C69.6635575,29.7281947 68.7709912,29.3899646 67.8455044,29.3883717 L67.8455044,29.4897876 C67.8455044,29.922531 67.4509912,30.1391681 66.6614336,30.1391681 C66.2186018,30.1391681 65.8915221,30.0648319 65.6796637,29.9156283 C65.4678053,29.7658938 65.3621416,29.5089027 65.3621416,29.1430619 L65.3621416,28.7389912 L70.5024956,28.7389912 Z" id="Fill-48"></path>
                </g>
            </g>
        </g>
    </g>
</svg>