<svg xmlns="http://www.w3.org/2000/svg" viewBox="0 0 604.6 166.6"><path fill="#0085c8" d="M165.7 47.7c-.8-2.9-4.6-3.5-7.3-1.2l-84.6 70c-19.9 16.8-18.3 12.1-42.1-17.3-2.5-3.1-9.2-9.5-8.7-15 .8-8.5 8.9-14.1 16.3-11.4 4.4 1.6 15.1 16.2 21.1 23.5 1.4 1.8 4.3 1.8 6.4.1 12.2-9.8 83.5-68.3 83.5-68.3 2.2-1.8 2.9-4.8 1.3-6.6C138.9 6.9 121.7 0 100.1 0a93.7 93.7 0 00-43.3 11 106.7 106.7 0 00-36.1 30.7c-9.8 13-16.2 26.8-19.2 41.6S-.2 112 4.6 125a61.3 61.3 0 0024.2 30.7c11.3 7.4 24.5 10.9 39.1 10.9 22.9 0 43.9-7.7 63.1-24.1s30.6-36.4 35.3-59.2c2.3-12.8 2.2-24.7-.6-35.6"/><path d="M326.7 63.9a13.4 13.4 0 013-5 6.3 6.3 0 014.4-1.6 8.2 8.2 0 015.9 2.1 7.5 7.5 0 012.2 5.8 13 13 0 01-.3 2.6 29.6 29.6 0 01-1.1 3.1l-25.2 59.8a13.8 13.8 0 01-3.2 5.3 5.7 5.7 0 01-4 1.5 8.5 8.5 0 01-6-2.2 7.6 7.6 0 01-2.2-5.8 12.7 12.7 0 01.3-2.8 14.5 14.5 0 011.1-2.9l6.8-14.8-16.7-38.9a6.6 6.6 0 01-.6-2 10.6 10.6 0 01-.2-2.6 8 8 0 012.3-5.9 7.8 7.8 0 015.7-2.3 6.6 6.6 0 014.8 1.7c1.3 1.1 2.4 3.2 3.6 6.3l9.3 24.9zm-79.6 21.8c0 4.1 1 7.4 3 9.8a9.4 9.4 0 007.7 3.8 9.2 9.2 0 007.6-3.8 15.3 15.3 0 003-9.8 14.6 14.6 0 00-3-9.5 9.2 9.2 0 00-7.6-3.7 9.4 9.4 0 00-7.7 3.7 14.4 14.4 0 00-3 9.5zm21.8 23.1a15.7 15.7 0 01-6.1 4.7 17.7 17.7 0 01-7.7 1.6c-7.1 0-13-2.8-17.9-8.3S230 94.2 230 85.9s2.5-15.2 7.5-20.8 11-8.5 18.2-8.5a17.9 17.9 0 017.5 1.5 14.3 14.3 0 015.7 4.5 10.7 10.7 0 013.5-4 7.6 7.6 0 014.4-1.3 7 7 0 016.2 2.9c1.3 1.9 2 5 2 9.1v33.2c0 4.1-.7 7.1-2 9.1s-3.4 2.9-6.2 2.9a7.6 7.6 0 01-4.6-1.3 11.1 11.1 0 01-3.3-4.4zm-78.5-34.3h7.4c3.8 0 6.7-.8 8.7-2.5s2.9-4.1 2.9-7.4-.9-5.8-2.8-7.4-4.9-2.3-8.8-2.3h-7.4zm0 28.2c0 4.1-.7 7.1-2.1 9.1a8.3 8.3 0 01-12.8 0c-1.4-2-2.1-5-2.1-9.1V51.2c0-4.6.9-7.7 2.6-9.4s4.8-2.6 9.1-2.6h15.4c8.4 0 15.1 2.3 19.9 6.9s7.4 10.7 7.4 18.5-2.3 14.1-6.9 18.6-10.9 6.7-19 6.7h-11.5z"/><path d="M596 64.8v-3a4.1 4.1 0 014.3-4.5 4.1 4.1 0 013 1.2 5 5 0 011.3 3.5v47.7a4.5 4.5 0 01-1.3 3.6 4.1 4.1 0 01-3 1.2 4.5 4.5 0 01-3.1-1.2 4 4 0 01-1.2-3.1v-4.1h-.3c-3.9 5.4-8.8 8.2-14.6 8.4a24.6 24.6 0 01-12.8-3.5 23.9 23.9 0 01-9.1-10 32.1 32.1 0 01-3.2-14.9q0-9.4 3.6-15.9a23.4 23.4 0 019.2-9.7 21.5 21.5 0 0111.2-3.2 20.3 20.3 0 018.6 1.7 23 23 0 017.1 5.8zm-30.8 21.1a30.1 30.1 0 001.7 10.1 17.6 17.6 0 004.9 7.6 12.4 12.4 0 008.2 2.9c5.6 0 9.6-2 12.1-6a28 28 0 003.6-14.6 30.9 30.9 0 00-1.8-11 16.7 16.7 0 00-5.4-7.2 13.4 13.4 0 00-7.9-2.4h-.2c-5 .1-8.7 2.1-11.2 5.9s-3.9 8.7-4 14.7zm-28.7-21.1V37.3a4.5 4.5 0 011.3-3.4 4.7 4.7 0 013.2-1.2 4.6 4.6 0 013.3 1.2 4.9 4.9 0 011.4 3.6v72.2a4.5 4.5 0 01-1.4 3.5 4.4 4.4 0 01-3.3 1.3 4.5 4.5 0 01-3.2-1.3 4.2 4.2 0 01-1.3-3.3v-3h-.3a11.9 11.9 0 01-4.8 5.2 17.2 17.2 0 01-9.1 2.4 22.8 22.8 0 01-21.6-13.7 36.1 36.1 0 01-3.2-14.7 36.8 36.8 0 011.7-11.1 29.4 29.4 0 014.9-9.3 23.5 23.5 0 017.5-6.2 20.4 20.4 0 019.5-2.2 17.9 17.9 0 0115.1 7.5zm-29.7 20.9a27.6 27.6 0 003.6 14.5 12.7 12.7 0 0010.9 6.3 14.1 14.1 0 009.4-3 16.4 16.4 0 005.1-7.7 31.6 31.6 0 001.7-9.9 26.7 26.7 0 00-2-10.8 17.1 17.1 0 00-5.4-7.3 13 13 0 00-7.9-2.5 12.8 12.8 0 00-8.7 3 18.4 18.4 0 00-5 7.7 28.7 28.7 0 00-1.7 9.7zm-23.5-35.8a5.8 5.8 0 01-5.8-5.8 5.4 5.4 0 011.7-4 5.7 5.7 0 014.1-1.7 5.4 5.4 0 013.9 1.7 5.2 5.2 0 011.7 4 5.4 5.4 0 01-1.7 4.1 5.4 5.4 0 01-3.9 1.7zm-4.6 12.3a4.9 4.9 0 011.4-3.6 4.1 4.1 0 013.2-1.3 4.7 4.7 0 013.2 1.2 4.7 4.7 0 011.4 3.5v47.7a4.5 4.5 0 01-1.4 3.5 4.6 4.6 0 01-6.4 0 4.7 4.7 0 01-1.4-3.5zm-21.2-24.5a4.5 4.5 0 011.3-3.5 4.2 4.2 0 013.2-1.3 4.7 4.7 0 013.2 1.2 4.4 4.4 0 011.4 3.4v72a5 5 0 01-1.4 3.7 4.6 4.6 0 01-6.4 0 4.9 4.9 0 01-1.3-3.7zm-21 27.1v-3a4.1 4.1 0 014.3-4.5 4.1 4.1 0 013 1.2 4.6 4.6 0 011.3 3.5v47.7a4.9 4.9 0 01-1.2 3.6 4.5 4.5 0 01-3.1 1.2 4.1 4.1 0 01-3-1.2 3.7 3.7 0 01-1.3-3.1v-4.1h-.2c-4 5.4-8.8 8.2-14.6 8.4a25 25 0 01-12.9-3.5 23.7 23.7 0 01-9-10 32.1 32.1 0 01-3.3-14.9q0-9.4 3.6-15.9a24 24 0 019.2-9.7 21.5 21.5 0 0111.2-3.2 20.8 20.8 0 018.7 1.7 24.2 24.2 0 017.1 5.8zm-30.8 21.1a30.1 30.1 0 001.7 10.1 17.8 17.8 0 005 7.6 12 12 0 008.1 2.9c5.6 0 9.7-2 12.1-6a28 28 0 003.7-14.6 30.9 30.9 0 00-1.9-11 16.7 16.7 0 00-5.4-7.2 13.3 13.3 0 00-7.8-2.4h-.3a13 13 0 00-11.2 5.9c-2.6 3.8-3.9 8.7-4 14.7zm-56.5-21.7c-.3-.9-.6-1.9-.9-3.2a4.4 4.4 0 014.3-4.6c2.5 0 4.1 1.3 5 3.9l12.8 39.4 13.2-39.4a4 4 0 014.3-3.2 4.4 4.4 0 013.1 1.1 4 4 0 011.4 3.2 9.2 9.2 0 01-.4 2.2l-16.6 47a8.6 8.6 0 01-1.9 2.9 4.1 4.1 0 01-3.1 1c-2.2 0-3.7-1.2-4.7-3.7z"/></svg>
