<svg xmlns="http://www.w3.org/2000/svg" x="0" y="0" viewBox="0 0 1920.8 323.5">
    <path d="M346.4 309.7c-26-5.7-46.3-18.1-68.4-40.5-24.3-24.6-110.9-127-110.9-127L305.3 11h-74.8L104.4 134.4c-5.5 5.4-8.8 8.9-11.6 12.4h-.7c.2-4.1.4-8.5.4-12.7V35.4C92.5 21.9 81.6 11 68.1 11H2.7c-3.1 0-3.5 3.3-1.2 4.4C11.4 20 19.2 25.3 19.2 43v269.5h73.3V173.6c0-3.5-.2-6.3-.4-10.3h.7c2.5 4.1 6.9 8.8 11.6 14.5 0 0 77 90.5 85.2 99.1 32.6 34.2 78.3 46.2 156.5 38.7 4.2-.4 4.2-5 .3-5.9" fill="#e51e2b"/>
    <path d="M488.7 292.7c-60.7 0-95.3-59.3-95.3-127.1 0-78 34.6-134.8 95.3-134.8 60.6 0 95.3 59.3 95.3 127.1 0 80.1-34.7 134.8-95.3 134.8m0-292.7C387 0 312 70.8 312 161.8c0 90.9 69.1 161.7 176.7 161.7 101.7 0 176.7-70.9 176.7-161.7C665.4 70.8 596.3 0 488.7 0" fill="#e51e2b"/>
    <path d="M1785.6 312.5l-45.1-275.1c-2.3-13.8-15-26.4-30.8-26.4h-42.2l-73.9 171.7c-3.4 7.7-5.6 13.7-7.2 18.2h-.4c-1.5-4.7-3.7-10.4-6.6-17.3l-65.3-153.1c-4.7-10.9-15.6-19.5-29.3-19.5H1420c-3.2 0-3.5 3.3-1.2 4.4 8.8 4 15.2 10.4 12.5 27.3L1387 312.4h46.7l29.4-190.3c1.4-9.7 3.1-21.5 3.7-27.5h.4c2.9 7.8 6.6 17.2 10.9 26.9l81.3 190.8h24.1l82.2-194.2c4.8-11.5 7.9-19.7 10.1-25.8h.4c.9 7.4 2.4 18.7 4.1 30.1l30.5 189.8h74.8z" fill="#e51e2b"/>
    <path d="M1896.4 11H1828c-3.2 0-3.5 3.3-1.2 4.4 9.9 4.5 17.7 9.9 17.7 27.6v269.5h76.2V35.4c.1-13.5-10.8-24.4-24.3-24.4" fill="#e51e2b"/>
    <path d="M957.6 11v172.4c0 8.4.4 13.8.7 21.3h-.7c-5.8-8.1-12.3-16.6-21.7-27.7L806.2 27.1C796.1 15.5 787.9 11 769.3 11h-65.9c-3.1 0-3.5 3.3-1.1 4.4 10 4.5 17.7 9.9 17.7 27.6v269.5h49.3V118.7c0-10.4-.4-18.5-.7-27.1h.7c9.1 12.3 21.6 28.4 31.7 40.2l155.5 180.8h25.9c13.5 0 24.4-10.9 24.4-24.4V11h-49.2z" fill="#e51e2b"/>
    <path d="M1133.8 206.6l47.2-103.9c2.3-5.3 4.4-10 5.1-12.5h.8c.9 3 2.9 7.6 5.1 12.7l46 103.7h-104.2zm151 105.9h83l-131-282.9c-4.8-10.2-15.2-18.6-28.7-18.6h-57.3c-3.2 0-3.5 3.3-1.1 4.4 7 3.5 11.9 15.1 6.8 26l-126.7 271.1h56l31.5-69.4H1254l30.8 69.4z" fill="#e51e2b"/>
</svg>
