<svg xmlns="http://www.w3.org/2000/svg" x="0" y="0" viewBox="0 0 1000 263.7">
    <path d="M824.5 0c-41.6.1-72.6 29.5-79.4 63.7-17.3-14.2-38.7-19.1-58.7-19.1-17 0-33.1 4.8-47.7 12.5-15-9.2-31.8-12.5-45.7-12.5-12 0-23.5 2.2-34 6.4-3.8-1.8-8-2.7-12.2-2.7h-52.5c-11.4 0-21.7 6.5-26.6 16.8-16.9-13.5-40.7-21.6-68.8-21.6-35.5 0-64.3 9.7-87.5 26a26 26 0 00-4.3 3.8c-17.7-17.9-43.9-29.8-74.3-29.8-26.8 0-50.3 8.9-67.9 22.8a29.54 29.54 0 00-27.1-17.8h-2.5V30.3c0-15.8-12.4-28.8-28.1-29.5C70.3-1.1 40.4 19.9 28 48.4c-15.7.8-28 13.8-28 29.5v43c0 13.2 8.7 24.7 21.4 28.4v25.5c0 29.3 14.2 53.3 31.1 66.5 16.9 13.2 33.9 18 50 18h35.4c11.6 0 22.2-6.9 26.9-17.5 19.2 14.2 44.9 22 74.3 22 24.9 0 44.7-4.8 58.5-9.9 8.2-3.1 14.9-6.6 19.1-9.1 13 11.4 31.9 19 53.1 19 14.7 0 27.3-3.3 37.5-7.6 3.7 1.6 7.7 2.5 11.8 2.5h51.1c4.2 0 8.3-.9 12.1-2.6 3.8 1.7 7.9 2.6 12.1 2.6h54.7c8.7 0 16.9-3.9 22.5-10.5 5.6 6.7 13.9 10.5 22.6 10.5h51.4c8.8 0 17.1-3.9 22.7-10.6 5.6 6.7 13.9 10.6 22.7 10.6h54.2c4.6 0 9.1-1.1 13.2-3.2 4.4 2.5 9.4 3.8 14.5 3.8h54.8c2 0 4-.2 6-.6 1.9.4 3.9.6 5.8.6h56.7a29.6 29.6 0 0029.5-27.1c.9-11.5 10.9-38 22.4-60.2 11.5-22.2 24.7-42.4 27.1-45.9l-.4.6c9-12.1 14.6-25.4 14.6-46.3 0-3.4-.2-6.7-.7-10.1 7.6-7.2 11.2-17.3 11.2-28.4 0-23.5-20.3-37.8-38.3-37.8-5.5 0-12.2 1-18 4.4C933.5 4 919.9-.1 907.5 0h-83z"/>
    <path d="M772.9 229.7h54.8V29.6c-33.4-1.6-54.4 25.1-54.4 48.2l-.4 151.9z" fill="#7700bd"/>
    <path d="M896.2 229.7h-56.7c0-41 31.2-101.3 57.5-142.6h-57.5V30.2H908c36.4 0 51.8 30.3 51.8 50.2 0 12.2-5.3 24-8.8 28.6-8 11.5-51.4 79.8-54.8 120.7z" fill="#7700bd"/>
    <path fill="#fff" d="M29.6 77.9v43H51v53.9c0 41.9 35.5 54.9 51.5 54.9h35.4v-54.9h-32.1v-53.9h32.1v-43h-32.1V30.3c-32.4-1.6-54.4 24.5-54.4 47.6H29.6z"/>
    <path d="M232.9 72.9c-55.2 0-78.6 43.8-78.6 82.3 0 42.1 24 78.9 84.9 78.9 42.3 0 64.7-16.2 64.7-16.2l-17.2-35.2c-7.5 4.3-24.3 10.9-44.3 10.9-15.8 0-34.2-4.8-36.6-24.1H308c3.3-46.8-15.7-96.6-75.1-96.6zm.1 40.4c14.8.3 27 11 27 24.2h-54c.1-13.1 11.9-24.5 27-24.2z" fill="#ffffff"/>
    <path d="M399 73c-31 0-51.4 7.1-70.4 20.6l20.4 31.3s16.3-12.2 43.5-12.2c11.2 0 26.4 4.2 24.6 22.2-8.7-1.6-19-1.4-21.5-1.5-32.4-1.2-72.4 14.5-72.4 55.6-1 17.1 8.7 45.2 46.6 45.2 30.8 0 38.8-11.2 47.5-18.8l1.8 13.7h51.1v-92.7C470.2 109 455.6 73 399 73zm18.1 90.8c.1 16.2-.4 18.5-3.3 23.7-4.4 7.7-12.8 9.7-20.3 9.7-3.2 0-17.5 0-17.5-16.5 0-11.8 11.5-17.9 23.3-18.1 9.7-.1 12.6.3 17.8 1.2z" fill="#ffffff"/>
    <path d="M546.9 77.9l2.1 16.7c8.5-12 25.4-20.5 44.1-20.5 15 0 32.3 4.8 43.1 20.2 14-12.6 32.1-20.2 50.2-20.2 31.6 0 58.8 16.1 58.8 60V229H691v-76.7c0-28.3-12-30.3-21-30.3s-24.4 4.6-24.4 27.9V229h-51.4v-76.7c0-27.4-10.3-30.2-21-30.2-13.3 0-24.1 10.4-24.1 25.2V229h-54.7V77.9h52.5z" fill="#ffffff"/>
    <path fill="#3a1072" d="M896.2 229.7h-53.6c10.4-65.9 62.6-93.2 94.3-124.7 15-14.8 24.2-29.8 14.2-52.5 6 9.1 8.8 19.4 8.8 27.9 0 12.2-5.3 24-8.8 28.6-8.1 11.5-51.5 79.8-54.9 120.7z"/>
    <path d="M957.5 36.5v10.6h2.4v-9h3c1.7 0 1.7.8 1.7 1.4 0 .6.2 1.4-1.7 1.4h-3.7l-.5 1.7h2.9l2.4 4.5h2.6l-2.5-4.4s2.9 0 2.9-2.7c0-3.3-2-3.5-2.8-3.5h-6.7z" fill="#ffffff"/>
    <path d="M961.7 32.1c-5.5 0-10 4.4-10 9.8s4.5 9.8 10 9.8 10-4.4 10-9.8-4.5-9.8-10-9.8zm0 2.2c4.3 0 7.7 3.4 7.7 7.6 0 4.2-3.5 7.6-7.7 7.6-4.3 0-7.7-3.4-7.7-7.6 0-4.2 3.4-7.6 7.7-7.6z" fill="#ffffff"/>
</svg>
