<svg xmlns="http://www.w3.org/2000/svg" width="26" height="24" viewBox="0 0 26 24" class="" style="width:28px;height:28px">
    <path fill="#fff" d="M16.83 11.91c0-1.58-1-3-2.51-3.61a4.2 4.2 0 0 0-4.44.84A3.8 3.8 0 0 0 9 13.41a4.08 4.08 0 0 0 3.76 2.42 4 4 0 0 0 4.07-3.92zm-1.63 5.68a6.57 6.57 0 0 1-6.96-1.33 5.97 5.97 0 0 1-1.38-6.7 6.4 6.4 0 0 1 5.9-3.8 6.28 6.28 0 0 1 6.39 6.15 6.15 6.15 0 0 1-3.95 5.68zm7.68-5.68l-.08-5a4.8 4.8 0 0 0-4.84-4.65l-5.2-.08-5.2.08a4.8 4.8 0 0 0-4.84 4.65l-.08 5 .08 5a4.8 4.8 0 0 0 4.84 4.66l5.2.08 5.2-.08a4.8 4.8 0 0 0 4.84-4.66zm2.32 0v.02l-.08 5.02A7.07 7.07 0 0 1 18 23.8l-5.24.07h-.02l-5.22-.07A7.07 7.07 0 0 1 .4 16.95l-.08-5.04v-.01L.4 6.88A7.07 7.07 0 0 1 7.52.03l5.24-.08h.02L18 .03a7.07 7.07 0 0 1 7.12 6.85zm-4.57-6.25c0 .56-.35 1.07-.9 1.28-.53.22-1.15.1-1.56-.3-.41-.4-.54-.99-.31-1.5.22-.52.75-.86 1.33-.86.8 0 1.44.62 1.44 1.38z">
    </path>
</svg>