<svg xmlns="http://www.w3.org/2000/svg" viewBox="0 0 448 512" class="" style="width:28px;height:28px">
    <path fill="#fff" d="M297.22 243.2c0 15.62-11.52 28.42-26.12 28.42-14.33 0-26.1-12.8-26.1-28.42s11.51-28.42 26.1-28.42c14.6 0 26.12 12.8 26.12 28.42zm-119.56-28.42c-14.59 0-26.1 12.8-26.1 28.42s11.77 28.42 26.1 28.42c14.6 0 26.12-12.8 26.12-28.42.25-15.62-11.52-28.42-26.12-28.42zM448 52.74V512c-64.5-57-43.87-38.13-118.78-107.78l13.56 47.36H52.48C23.55 451.58 0 428.03 0 398.85V52.74C0 23.55 23.55 0 52.48 0h343.04C424.45 0 448 23.55 448 52.74zm-72.96 242.68c0-82.43-36.86-149.24-36.86-149.24-36.87-27.65-71.94-26.88-71.94-26.88l-3.58 4.1c43.52 13.3 63.74 32.5 63.74 32.5-60.81-33.33-132.24-33.33-191.23-7.42-9.47 4.35-15.1 7.42-15.1 7.42s21.24-20.22 67.32-33.53l-2.56-3.07s-35.07-.77-71.93 26.88c0 0-36.87 66.81-36.87 149.24 0 0 21.5 37.12 78.08 38.92 0 0 9.47-11.52 17.15-21.25-32.5-9.73-44.8-30.21-44.8-30.21 3.77 2.64 9.98 6.05 10.5 6.4 43.21 24.2 104.59 32.13 159.74 8.96a146.5 146.5 0 0 0 29.44-15.1s-12.8 20.99-46.33 30.46c7.68 9.73 16.9 20.74 16.9 20.74 56.57-1.8 78.33-38.92 78.33-38.92z">
    </path>
</svg>