<svg xmlns="http://www.w3.org/2000/svg" width="23" height="18" viewBox="0 0 23 18" class="" style="width:28px;height:28px">
    <path fill="#fff" d="M20.65 4.75l.01.57c0 5.8-4.6 12.47-13.02 12.47-2.58 0-4.98-.72-7.01-1.97A9.44 9.44 0 0 0 7.4 14c-2-.03-3.69-1.3-4.27-3.03a4.78 4.78 0 0 0 2.07-.08 4.44 4.44 0 0 1-3.67-4.3v-.05a4.9 4.9 0 0 0 2.07.55 4.34 4.34 0 0 1-2.04-3.65c0-.8.23-1.56.62-2.2a13.19 13.19 0 0 0 9.43 4.57 4.22 4.22 0 0 1-.11-1A4.48 4.48 0 0 1 16.07.43c1.32 0 2.5.53 3.34 1.38a9.42 9.42 0 0 0 2.9-1.06 4.44 4.44 0 0 1-2 2.43c.92-.11 1.8-.35 2.62-.7a9.1 9.1 0 0 1-2.28 2.27z">
    </path>
</svg>